<?xml version="1.0" encoding="UTF-8"?>
<svg version="1.1" xmlns="http://www.w3.org/2000/svg" width="626" height="480">
<path d="M0 0 C206.58 0 413.16 0 626 0 C626 158.4 626 316.8 626 480 C419.42 480 212.84 480 0 480 C0 321.6 0 163.2 0 0 Z " fill="#FEFEFE" transform="translate(0,0)"/>
<path d="M0 0 C1.01449219 0.2784375 2.02898437 0.556875 3.07421875 0.84375 C23.7670123 7.11921157 39.58729519 21.22174837 50 40 C56.03754883 52.181822 56.03754883 52.181822 55 59 C53 61 53 61 49.875 61.125 C48.92625 61.08375 47.9775 61.0425 47 61 C46.5153125 59.97261719 46.030625 58.94523437 45.53125 57.88671875 C41.41161949 49.30692375 37.10555151 41.37251378 31 34 C30.11441406 32.92685547 30.11441406 32.92685547 29.2109375 31.83203125 C20.42808361 22.17089197 8.42297337 17.12897833 -4 14 C-5.2478125 13.64421875 -6.495625 13.2884375 -7.78125 12.921875 C-20.39157815 9.80751062 -34.00626376 11.48384006 -46 16 C-47.02351562 16.36222656 -48.04703125 16.72445312 -49.1015625 17.09765625 C-55.91289654 19.69370734 -61.66551563 23.21134377 -67.6015625 27.42578125 C-70 29 -70 29 -72 29 C-72 29.66 -72 30.32 -72 31 C-73.50390625 32.48046875 -73.50390625 32.48046875 -75.5625 34.1875 C-82.9287636 40.49032414 -88.67859463 46.86355884 -94 55 C-94.50402344 55.73605469 -95.00804687 56.47210938 -95.52734375 57.23046875 C-104.17261047 70.55381083 -109.03023095 86.1601172 -109.55859375 101.92578125 C-110 105 -110 105 -111.22265625 106.91796875 C-113.69597277 108.4237021 -115.15426862 108.47135179 -118 108 C-119.7734375 106.42578125 -119.7734375 106.42578125 -121.375 104.3125 C-123.70334993 101.42125228 -125.85442688 99.19906737 -128.9375 97.125 C-129.948125 96.42375 -130.95875 95.7225 -132 95 C-132 94.34 -132 93.68 -132 93 C-134.97 92.01 -134.97 92.01 -138 91 C-138 90.34 -138 89.68 -138 89 C-138.825 88.773125 -139.65 88.54625 -140.5 88.3125 C-143.28977949 87.26633269 -145.13865997 86.35045488 -147.5625 84.75 C-162.33237334 75.18636554 -178.69474032 70.58280667 -196.1875 70.6875 C-197.1878125 70.69313965 -198.188125 70.6987793 -199.21875 70.70458984 C-222.6157049 71.08377669 -243.58289008 79.3683117 -260.6875 95.48828125 C-279.20059566 115.59625509 -282.94311125 139.46364674 -282.18359375 165.87207031 C-280.91769623 187.43946261 -269.15866423 206.43452833 -255 222 C-254.30777344 222.76441406 -253.61554688 223.52882813 -252.90234375 224.31640625 C-247.81669816 229.65267914 -242.09767292 233.88444905 -236 238 C-235.43313477 238.38414062 -234.86626953 238.76828125 -234.28222656 239.1640625 C-223.08915205 246.67050511 -211.27588203 252.48447837 -199 258 C-197.85869629 258.52158691 -197.85869629 258.52158691 -196.69433594 259.05371094 C-183.58266085 265.01356325 -169.99048618 269.48679866 -156.31010437 273.93634033 C-151.12004002 275.62649622 -145.942858 277.35308853 -140.76953125 279.09375 C-126.54932027 283.87470448 -112.34234562 288.62188558 -97.94140625 292.8359375 C-40.40847694 309.67551585 -40.40847694 309.67551585 -24 327 C-23.67 327.66 -23.34 328.32 -23 329 C-22.82460693 328.31188232 -22.64921387 327.62376465 -22.46850586 326.91479492 C-15.93989033 301.49612629 -9.15552431 275.79085647 9 256 C9.61875 255.26652344 10.2375 254.53304688 10.875 253.77734375 C13.86409165 250.42128772 15.19801437 249.13366427 19.75 248.375 C23 249 23 249 24.9375 250.125 C26.55824231 252.98513349 26.51742613 254.76608669 26 258 C23.9416667 260.50859372 21.66140576 262.45282423 19.16796875 264.515625 C11.00264365 271.40864106 0.12282685 282.11746238 -2 293 C-2.66 293 -3.32 293 -4 293 C-4.28359375 293.87914062 -4.5671875 294.75828125 -4.859375 295.6640625 C-5.87644037 298.63863039 -7.00939282 301.48852063 -8.25 304.375 C-13.00538157 315.71475606 -17.39757301 326.94665394 -20 339 C-21.90234375 338.71484375 -21.90234375 338.71484375 -24 338 C-25.05047644 335.68895182 -26.05007438 333.35416349 -27 331 C-27.99 330.34 -28.98 329.68 -30 329 C-30 328.34 -30 327.68 -30 327 C-30.67289062 326.73832031 -31.34578125 326.47664063 -32.0390625 326.20703125 C-34.84483341 325.06325392 -37.60368663 323.83639977 -40.36474609 322.58935547 C-53.69481801 316.60911674 -67.42782033 312.4795098 -81.5078125 308.67675781 C-84.15378928 307.95823826 -86.79580929 307.22630141 -89.4375 306.4921875 C-97.65764945 304.21526489 -105.87239281 301.9680454 -114.1875 300.0625 C-121.84357382 298.30798308 -129.45497544 296.39142298 -137.0625 294.4375 C-138.21709717 294.14431885 -139.37169434 293.8511377 -140.5612793 293.54907227 C-145.24241503 292.33928688 -149.85842899 291.13723557 -154.37109375 289.390625 C-157.90658261 288.03579827 -161.3100284 287.14193441 -165 286.3125 C-202.90895666 277.26043365 -247.04219425 260.521188 -273 230 C-273.33 229.01 -273.66 228.02 -274 227 C-274.66 227 -275.32 227 -276 227 C-277.65036846 225.0367364 -279.14624296 223.08837616 -280.625 221 C-281.0679541 220.37641602 -281.5109082 219.75283203 -281.96728516 219.11035156 C-286.78768725 212.13313519 -290.49286471 204.70278793 -294 197 C-294.61488281 195.67742187 -294.61488281 195.67742187 -295.2421875 194.328125 C-300.76560104 181.56861156 -302.65402812 168.8311107 -302.46655273 155.07128906 C-302.43733624 152.73691593 -302.44605839 150.40479482 -302.45898438 148.0703125 C-302.42340647 122.29624586 -291.38434924 98.61347973 -273.5625 80.1875 C-253.37796406 60.7009079 -228.44465711 52.93090581 -200.875 52.75 C-199.79049561 52.74057373 -198.70599121 52.73114746 -197.58862305 52.72143555 C-174.44548906 52.81439395 -155.58084402 61.08853613 -137.19140625 74.66796875 C-135.00869956 76.26292088 -132.86474189 77.7349014 -130.58984375 79.17578125 C-129.73519531 79.77777344 -128.88054687 80.37976563 -128 81 C-128 81.66 -128 82.32 -128 83 C-127.443125 83.2475 -126.88625 83.495 -126.3125 83.75 C-123.60028873 85.21606015 -121.36412635 87.02989471 -119 89 C-119.0825 87.989375 -119.165 86.97875 -119.25 85.9375 C-119.0507537 63.14372349 -103.88495418 41.81016157 -89 26 C-88.44957031 25.38511719 -87.89914062 24.77023438 -87.33203125 24.13671875 C-65.54181319 0.73241046 -30.42818108 -8.53607982 0 0 Z " fill="#FC0740" transform="translate(350,65)"/>
<path d="M0 0 C0.97324219 0.42539063 1.94648438 0.85078125 2.94921875 1.2890625 C9.65811727 4.43727837 15.42528641 8.12752746 21 13 C21.60328125 13.50917969 22.2065625 14.01835937 22.828125 14.54296875 C32.96795052 23.79213392 39.99669274 37.4965973 40.921875 51.1640625 C40.94765625 51.76992187 40.9734375 52.37578125 41 53 C41.87140625 52.28714844 42.7428125 51.57429688 43.640625 50.83984375 C60.70956312 37.04383894 75.6360669 29.53806529 98 31 C112.63996112 32.94484839 128.07859169 38.48466052 138 50 C138 50.66 138 51.32 138 52 C138.66 52 139.32 52 140 52 C152.21641124 65.57787876 153.73561755 83.92370427 153.17480469 101.21728516 C152.06238441 118.92589738 141.08248507 134.8050094 128.3125 146.4375 C119.43005647 154 119.43005647 154 116 154 C116 154.66 116 155.32 116 156 C114.40494792 156.65104167 112.80989583 157.30208333 111.21484375 157.953125 C108.79332859 159.05359233 108.79332859 159.05359233 105.828125 160.8984375 C101.67502435 163.29651287 97.34337087 164.84063068 92.8125 166.375 C91.9352124 166.67607666 91.0579248 166.97715332 90.15405273 167.28735352 C76.45963491 171.9361868 62.56442431 175.88381594 48.63766479 179.76834106 C46.72802596 180.30119195 44.81920352 180.83696588 42.91040039 181.37280273 C41.72696045 181.69966064 40.54352051 182.02651855 39.32421875 182.36328125 C38.27322998 182.65501221 37.22224121 182.94674316 36.1394043 183.24731445 C32.77432619 184.05410626 29.42608675 184.52712865 26 185 C23.98782905 185.62897736 21.98871968 186.3004012 20 187 C18.45417493 187.46364449 16.90572983 187.91859868 15.35546875 188.3671875 C14.09186523 188.73650391 14.09186523 188.73650391 12.80273438 189.11328125 C11.07213993 189.61733788 9.34037703 190.11740158 7.60742188 190.61328125 C-2.19019136 193.49361538 -12.80159248 196.64286646 -18 206 C-18.66 206 -19.32 206 -20 206 C-20.30292969 204.97261719 -20.60585938 203.94523438 -20.91796875 202.88671875 C-26.09120849 185.64536873 -32.911233 167.97364873 -48 157 C-47.67 155.35 -47.34 153.7 -47 152 C-44.73828125 151.30859375 -44.73828125 151.30859375 -42 151 C-31.09588008 157.464119 -25.84029173 172.63679652 -22 184 C-21.69698975 184.89614014 -21.39397949 185.79228027 -21.08178711 186.71557617 C-19.62293643 191.27025616 -18.61758703 195.15610233 -19 200 C-18.40574219 199.48050781 -17.81148438 198.96101562 -17.19921875 198.42578125 C-16.37035156 197.72839844 -15.54148437 197.03101563 -14.6875 196.3125 C-13.88699219 195.62800781 -13.08648437 194.94351563 -12.26171875 194.23828125 C-4.47194964 188.89272712 4.75776131 185.79591848 13.5625 182.5 C14.61912842 182.10401611 15.67575684 181.70803223 16.7644043 181.30004883 C22.56166515 179.16338305 28.33076875 177.22882751 34.3125 175.6875 C63.45309528 168.14347038 100.4931559 158.1925644 121.9375 136.0625 C122.618125 135.381875 123.29875 134.70125 124 134 C124.66 134 125.32 134 126 134 C126.26039063 133.44570313 126.52078125 132.89140625 126.7890625 132.3203125 C128.15290929 129.70700607 129.73830928 127.32646252 131.375 124.875 C140.39013673 110.8076304 142.25652535 94.7235405 139.3515625 78.34375 C135.35470403 65.36250026 127.16999942 54.65881779 115.1875 48.1875 C101.46699419 42.00596314 83.50384782 39.77221594 69.0625 44.9375 C67.00921783 45.89138699 64.98855012 46.91762462 63 48 C62.38543945 48.32709961 61.77087891 48.65419922 61.13769531 48.99121094 C53.6661517 53.01719361 47.11308473 57.06429832 41.61328125 63.6640625 C40.81470703 64.32535156 40.81470703 64.32535156 40 65 C37.79296875 64.7109375 37.79296875 64.7109375 36 64 C35.82984375 62.96101563 35.6596875 61.92203125 35.484375 60.8515625 C32.10799593 41.03378888 24.21748099 26.86561906 8.01171875 14.48046875 C-3.40387188 6.65736213 -16.55734476 5.46631264 -30 7 C-41.46037059 9.58541983 -49.73387475 17.13553544 -56 26.8125 C-57.80333113 29.8166069 -59.47150031 32.84746939 -61 36 C-62.65 35.67 -64.3 35.34 -66 35 C-64.01773218 22.70993951 -57.01627643 12.14760952 -46.9375 4.8125 C-33.00703159 -3.74746796 -15.35026763 -6.77142818 0 0 Z " fill="#F90F43" transform="translate(422,140)"/>
<path d="M0 0 C3.25 0.625 3.25 0.625 5.1875 1.75 C6.80824231 4.61013349 6.76742613 6.39108669 6.25 9.625 C4.1916667 12.13359372 1.91140576 14.07782423 -0.58203125 16.140625 C-8.74735635 23.03364106 -19.62717315 33.74246238 -21.75 44.625 C-22.41 44.625 -23.07 44.625 -23.75 44.625 C-24.17539062 45.94371094 -24.17539062 45.94371094 -24.609375 47.2890625 C-25.62644037 50.26363039 -26.75939282 53.11352063 -28 56 C-32.75538157 67.33975606 -37.14757301 78.57165394 -39.75 90.625 C-41.65234375 90.33984375 -41.65234375 90.33984375 -43.75 89.625 C-44.80047644 87.31395182 -45.80007438 84.97916349 -46.75 82.625 C-47.74 81.965 -48.73 81.305 -49.75 80.625 C-49.75 79.965 -49.75 79.305 -49.75 78.625 C-50.42289062 78.36332031 -51.09578125 78.10164063 -51.7890625 77.83203125 C-54.59483341 76.68825392 -57.35368663 75.46139977 -60.11474609 74.21435547 C-73.44481801 68.23411674 -87.17782033 64.1045098 -101.2578125 60.30175781 C-103.90378928 59.58323826 -106.54580929 58.85130141 -109.1875 58.1171875 C-117.40764945 55.84026489 -125.62239281 53.5930454 -133.9375 51.6875 C-141.59357382 49.93298308 -149.20497544 48.01642298 -156.8125 46.0625 C-158.54439575 45.62272827 -158.54439575 45.62272827 -160.3112793 45.17407227 C-166.28235246 43.63091747 -172.02780441 41.92928684 -177.75 39.625 C-177.75 38.965 -177.75 38.305 -177.75 37.625 C-170.98238872 38.56957629 -164.8899567 39.55502165 -158.75 42.625 C-158.42 41.305 -158.09 39.985 -157.75 38.625 C-155.77 38.625 -153.79 38.625 -151.75 38.625 C-151.42 37.305 -151.09 35.985 -150.75 34.625 C-136.98197189 38.37565845 -123.28603454 42.20757458 -109.80908203 46.90869141 C-107.79172527 47.61048471 -105.7696259 48.2967159 -103.74609375 48.98046875 C-49.27661571 67.57176859 -49.27661571 67.57176859 -42.75 80.625 C-42.57460693 79.93688232 -42.39921387 79.24876465 -42.21850586 78.53979492 C-35.68989033 53.12112629 -28.90552431 27.41585647 -10.75 7.625 C-9.821875 6.52478516 -9.821875 6.52478516 -8.875 5.40234375 C-5.88590835 2.04628772 -4.55198563 0.75866427 0 0 Z " fill="#F90E43" transform="translate(369.75,313.375)"/>
<path d="M0 0 C3.63907143 0 5.71240499 1.32539996 8.3125 3.6875 C16.12493871 12.11002069 20.37954688 22.27086912 24 33 C24.45439453 34.34408936 24.45439453 34.34408936 24.91796875 35.71533203 C26.3771235 40.27005275 27.38242208 44.15598694 27 49 C27.89138672 48.22076172 27.89138672 48.22076172 28.80078125 47.42578125 C29.62964844 46.72839844 30.45851563 46.03101563 31.3125 45.3125 C32.51326172 44.28576172 32.51326172 44.28576172 33.73828125 43.23828125 C41.52805036 37.89272712 50.75776131 34.79591848 59.5625 31.5 C60.61912842 31.10401611 61.67575684 30.70803223 62.7644043 30.30004883 C69.22957483 27.91721511 75.66857852 25.87758885 82.33789062 24.16845703 C94.84240791 20.8488449 107.01329739 16.25160544 119.22468567 12.00196838 C124.13680698 10.29361038 129.06009219 8.62607635 134 7 C134.33 7.99 134.66 8.98 135 10 C134.35933594 10.18175781 133.71867188 10.36351562 133.05859375 10.55078125 C127.85604103 12.06270045 122.92855673 13.75000671 118 16 C118 16.99 118 17.98 118 19 C131.70273862 14.9026838 131.70273862 14.9026838 144.9921875 9.6640625 C147.4059069 8.86575063 149.47445267 8.88560239 152 9 C148.20533209 12.4131388 143.74556252 13.70617716 139 15.3125 C138.10917725 15.61808838 137.21835449 15.92367676 136.30053711 16.23852539 C122.55658935 20.9029253 108.61447017 24.86985689 94.63766479 28.76834106 C92.72802596 29.30119195 90.81920352 29.83696588 88.91040039 30.37280273 C87.13524048 30.8630896 87.13524048 30.8630896 85.32421875 31.36328125 C83.7477356 31.80087769 83.7477356 31.80087769 82.1394043 32.24731445 C78.77432619 33.05410626 75.42608675 33.52712865 72 34 C69.98782905 34.62897736 67.98871968 35.3004012 66 36 C64.45417493 36.46364449 62.90572983 36.91859868 61.35546875 37.3671875 C60.51306641 37.61339844 59.67066406 37.85960937 58.80273438 38.11328125 C57.07213993 38.61733788 55.34037703 39.11740158 53.60742188 39.61328125 C43.80980864 42.49361538 33.19840752 45.64286646 28 55 C27.34 55 26.68 55 26 55 C25.69707031 53.97261719 25.39414062 52.94523437 25.08203125 51.88671875 C19.90879151 34.64536873 13.088767 16.97364873 -2 6 C-1.125 1.125 -1.125 1.125 0 0 Z " fill="#F12649" transform="translate(376,291)"/>
<path d="M0 0 C-0.33 0.99 -0.66 1.98 -1 3 C-1.57540527 2.9292627 -2.15081055 2.85852539 -2.74365234 2.78564453 C-9.71994235 2.00006982 -16.60914357 1.84970244 -23.625 1.875 C-24.70523438 1.87113281 -25.78546875 1.86726562 -26.8984375 1.86328125 C-35.01586163 1.87318055 -42.2880661 2.24573789 -50 5 C-50.66 5 -51.32 5 -52 5 C-52 5.66 -52 6.32 -52 7 C-52.73605469 7.18175781 -53.47210938 7.36351562 -54.23046875 7.55078125 C-62.46739946 9.67257978 -67.20554076 12.0984027 -73.109375 18.15625 C-77.94273313 22.86977281 -82.51293276 26.03879362 -89 28 C-91.11890737 29.64803906 -92.10889688 31.1814948 -93.5 33.5 C-95 36 -95 36 -96.5078125 37.4140625 C-98.21000266 39.22319655 -98.68601151 40.50380583 -99.375 42.875 C-100.60545072 46.88050979 -102.06558703 50.73542973 -103.625 54.625 C-105.96214136 60.66787901 -107.03419235 65.91264583 -107 72.375 C-107 73.57125 -107 74.7675 -107 76 C-107.495 76.495 -107.495 76.495 -108 77 C-108.06294444 78.74628556 -108.05933663 80.49506079 -108.02734375 82.2421875 C-108.01509766 83.30824219 -108.00285156 84.37429687 -107.99023438 85.47265625 C-107.95519819 87.73313891 -107.91616324 89.99356328 -107.87304688 92.25390625 C-107.86208984 93.32253906 -107.85113281 94.39117187 -107.83984375 95.4921875 C-107.82300537 96.47558105 -107.80616699 97.45897461 -107.78881836 98.47216797 C-108 101 -108 101 -110 104 C-112.0982484 97.11172638 -112.34843665 90.6758724 -112.3125 83.5 C-112.30758545 82.34741699 -112.3026709 81.19483398 -112.29760742 80.00732422 C-111.99543284 57.89434301 -105.20369054 38.42814884 -90 22 C-65.7955021 -0.59977981 -32.13294234 -9.35586536 0 0 Z " fill="#E9E5E6" transform="translate(179,138)"/>
<path d="M0 0 C0.66 0 1.32 0 2 0 C0.66666667 3.33333333 -0.66666667 6.66666667 -2 10 C-2.66 10 -3.32 10 -4 10 C-4.42539062 11.31871094 -4.42539062 11.31871094 -4.859375 12.6640625 C-5.87644037 15.63863039 -7.00939282 18.48852063 -8.25 21.375 C-13.00538157 32.71475606 -17.39757301 43.94665394 -20 56 C-21.90234375 55.71484375 -21.90234375 55.71484375 -24 55 C-25.05047644 52.68895182 -26.05007438 50.35416349 -27 48 C-27.99 47.34 -28.98 46.68 -30 46 C-30 45.34 -30 44.68 -30 44 C-30.6703125 43.73960937 -31.340625 43.47921875 -32.03125 43.2109375 C-34.8759098 42.05061574 -37.67155358 40.80267905 -40.47070312 39.53735352 C-48.18740756 36.06799302 -55.83054635 33.25219527 -64 31 C-61 29 -61 29 -59.08984375 29.1015625 C-53.15435754 30.54503827 -47.60958985 32.58752503 -42 35 C-42 34.01 -42 33.02 -42 32 C-33.89115849 33.87127112 -27.91154917 39.54386863 -23 46 C-22.8141333 45.28569824 -22.6282666 44.57139648 -22.43676758 43.83544922 C-15.58305467 17.61603717 -15.58305467 17.61603717 -11 6 C-10.505 7.98 -10.505 7.98 -10 10 C-9.34 10 -8.68 10 -8 10 C-7.505 11.485 -7.505 11.485 -7 13 C-6.57847656 12.14535156 -6.15695312 11.29070312 -5.72265625 10.41015625 C-5.17480469 9.30542969 -4.62695312 8.20070313 -4.0625 7.0625 C-3.51722656 5.96035156 -2.97195313 4.85820312 -2.41015625 3.72265625 C-1 1 -1 1 0 0 Z " fill="#F41F47" transform="translate(350,348)"/>
<path d="M0 0 C0 0.66 0 1.32 0 2 C-0.64066406 2.18175781 -1.28132813 2.36351562 -1.94140625 2.55078125 C-7.14395897 4.06270045 -12.07144327 5.75000671 -17 8 C-17 8.99 -17 9.98 -17 11 C-3.29726138 6.9026838 -3.29726138 6.9026838 9.9921875 1.6640625 C12.4059069 0.86575063 14.47445267 0.88560239 17 1 C13.20533209 4.4131388 8.74556252 5.70617716 4 7.3125 C3.10917725 7.61808838 2.21835449 7.92367676 1.30053711 8.23852539 C-7.08368462 11.0839497 -15.52460157 13.69774355 -24.03417969 16.140625 C-26.20179614 16.76871274 -28.36607592 17.40834819 -30.52832031 18.0546875 C-33.72907996 19.01087632 -36.93321537 19.95164606 -40.14260864 20.87820435 C-42.01140338 21.42261472 -43.87482863 21.98535172 -45.73803711 22.54858398 C-53.20890173 24.67584442 -59.32584793 25.37761247 -67 24 C-67 23.34 -67 22.68 -67 22 C-59.40662914 18.54738919 -51.8946722 15.5193674 -43.89868164 13.11108398 C-36.87051187 10.98907415 -29.90411527 8.69037644 -22.9375 6.375 C-21.77130127 5.99045654 -20.60510254 5.60591309 -19.40356445 5.2097168 C-12.54396614 2.93760723 -12.54396614 2.93760723 -5.87890625 0.1640625 C-3 -1 -3 -1 0 0 Z " fill="#F81746" transform="translate(511,299)"/>
<path d="M0 0 C-0.99 0.66 -1.98 1.32 -3 2 C-3.99 1.67 -4.98 1.34 -6 1 C-6 0.34 -6 -0.32 -6 -1 C-7.98 -1 -9.96 -1 -12 -1 C-12 -1.66 -12 -2.32 -12 -3 C-12.92232422 -2.85691406 -12.92232422 -2.85691406 -13.86328125 -2.7109375 C-14.67152344 -2.60007813 -15.47976563 -2.48921875 -16.3125 -2.375 C-17.11300781 -2.25898438 -17.91351562 -2.14296875 -18.73828125 -2.0234375 C-21 -2 -21 -2 -24 -4 C-24.66 -3.67 -25.32 -3.34 -26 -3 C-27.76856576 -2.84621167 -29.54012052 -2.72573063 -31.3125 -2.625 C-35.81843457 -2.25776342 -38.17017426 -1.39364109 -42 1 C-46.47507401 2.1187685 -50.99699853 3.09253807 -55.62109375 2.87890625 C-58.55290823 3.02814475 -59.44745261 3.76744977 -61.5625 5.75 C-62.45388672 6.57371094 -62.45388672 6.57371094 -63.36328125 7.4140625 C-63.90339844 7.93742188 -64.44351562 8.46078125 -65 9 C-65.7425 9.70125 -66.485 10.4025 -67.25 11.125 C-69.05561057 12.9495042 -69.05561057 12.9495042 -70.375 15.125 C-72.57269768 17.66080502 -74.81342001 18.15024534 -78 19 C-78.99 18.01 -79.98 17.02 -81 16 C-80.25621094 15.58105469 -79.51242187 15.16210938 -78.74609375 14.73046875 C-76.16343123 13.10298724 -74.23764122 11.43595469 -72.0625 9.3125 C-66.29550141 4.10205036 -59.86722519 0.51925826 -53 -3 C-52.15179688 -3.45890625 -51.30359375 -3.9178125 -50.4296875 -4.390625 C-34.96440888 -11.45194192 -14.4534576 -7.50633438 0 0 Z " fill="#E6E2E1" transform="translate(540,189)"/>
<path d="M0 0 C0 0.99 0 1.98 0 3 C-0.99 3 -1.98 3 -3 3 C-3.33 3.66 -3.66 4.32 -4 5 C-4.66 5 -5.32 5 -6 5 C-6.33 6.65 -6.66 8.3 -7 10 C-7.8353125 10.061875 -7.8353125 10.061875 -8.6875 10.125 C-12.15605198 11.43742507 -13.69850982 14.16739671 -16 17 C-16.99 17.33 -17.98 17.66 -19 18 C-20.39954979 19.78329731 -21.72476436 21.62579005 -23 23.5 C-26.66666667 28.88888889 -26.66666667 28.88888889 -30 30 C-29.01 30.66 -28.02 31.32 -27 32 C-27.86625 32.680625 -27.86625 32.680625 -28.75 33.375 C-31.35269775 36.41148071 -32.33801262 39.14916972 -33.7265625 42.859375 C-35.34008934 46.83874793 -37.20746121 50.65976312 -39.125 54.5 C-39.47401367 55.20672852 -39.82302734 55.91345703 -40.18261719 56.64160156 C-41.58480348 59.43110043 -42.77745923 61.77745923 -45 64 C-45.46586475 66.45819827 -45.46586475 66.45819827 -45.625 69.25 C-45.70363281 70.23613281 -45.78226563 71.22226563 -45.86328125 72.23828125 C-46.0534696 75.11290042 -46.0534696 75.11290042 -45.8125 78.4375 C-46 81 -46 81 -47.75 83.4375 C-50 85 -50 85 -52.25 84.75 C-53.11625 84.37875 -53.11625 84.37875 -54 84 C-52.77796875 83.44892578 -52.77796875 83.44892578 -51.53125 82.88671875 C-48.71840552 81.23372899 -48.71840552 81.23372899 -48.46875 78.20703125 C-48.4790625 77.08683594 -48.489375 75.96664062 -48.5 74.8125 C-48.18346329 66.29238699 -45.90863607 58.96849437 -43 51 C-42.60554687 49.91332031 -42.21109375 48.82664063 -41.8046875 47.70703125 C-35.62564507 31.89113788 -24.65205451 18.20367116 -12 7 C-11.34 7 -10.68 7 -10 7 C-10 6.34 -10 5.68 -10 5 C-8.3203125 3.7109375 -8.3203125 3.7109375 -6.125 2.375 C-5.40570313 1.92898437 -4.68640625 1.48296875 -3.9453125 1.0234375 C-2 0 -2 0 0 0 Z " fill="#E3DDDD" transform="translate(288,89)"/>
<path d="M0 0 C1.30855957 0.00483398 1.30855957 0.00483398 2.64355469 0.00976562 C9.78006878 0.16301176 15.71261794 1.46113093 22.25 4.4375 C21.92 5.0975 21.59 5.7575 21.25 6.4375 C16.96 5.7775 12.67 5.1175 8.25 4.4375 C8.25 3.7775 8.25 3.1175 8.25 2.4375 C7.43595703 2.93443359 7.43595703 2.93443359 6.60546875 3.44140625 C3.71522336 4.66364932 1.68598974 4.53423673 -1.4375 4.375 C-7.38623985 4.27318783 -13.82069087 4.63774263 -18.33984375 8.95703125 C-18.80519531 9.44558594 -19.27054687 9.93414062 -19.75 10.4375 C-20.9875 11.118125 -20.9875 11.118125 -22.25 11.8125 C-25.11344624 13.67374006 -26.08841778 15.50995037 -27.75 18.4375 C-28.41 18.4375 -29.07 18.4375 -29.75 18.4375 C-29.9046875 19.5203125 -29.9046875 19.5203125 -30.0625 20.625 C-31.23621851 25.42657571 -33.76538543 29.47750061 -37.75 32.4375 C-41 32.1875 -41 32.1875 -43.75 31.4375 C-42.76 30.7775 -41.77 30.1175 -40.75 29.4375 C-39.62144406 27.36230317 -39.62144406 27.36230317 -38.625 24.9375 C-33.17641042 13.64880542 -23.73320785 5.29186109 -11.98266602 1.04614258 C-8.00784742 -0.0374247 -4.09774991 -0.04722724 0 0 Z " fill="#ECEEEE" transform="translate(401.75,145.5625)"/>
<path d="M0 0 C0.99 0.495 0.99 0.495 2 1 C1.4272309 4.3220608 0.57338693 5.83472729 -2 8 C-4.41015625 9.09765625 -4.41015625 9.09765625 -7.0625 10.0625 C-10.89193066 11.44523355 -10.89193066 11.44523355 -14 14 C-18.00871626 15.41975368 -21.64003452 16.10767403 -25.875 16.4375 C-30.90275161 16.85390888 -35.30745983 18.19779254 -40 20 C-40 20.66 -40 21.32 -40 22 C-47.26153846 24.21538462 -47.26153846 24.21538462 -51 23.125 C-51.66 22.75375 -52.32 22.3825 -53 22 C-53 22.66 -53 23.32 -53 24 C-57.49885947 24.86516528 -60.01647791 25.30903272 -64 23 C-62.95585937 22.72027344 -61.91171875 22.44054687 -60.8359375 22.15234375 C-45.01869077 17.86607417 -29.3138517 13.16985717 -14 7.3125 C-13.27683594 7.03937988 -12.55367187 6.76625977 -11.80859375 6.48486328 C-7.45444037 4.77356533 -3.80354494 2.72785489 0 0 Z " fill="#E7E2E3" transform="translate(534,296)"/>
<path d="M0 0 C0 0.33 0 0.66 0 1 C-8.02987821 2.53965216 -16.16771435 1.98382969 -24.3046875 1.78515625 C-25.47515625 1.77097656 -26.645625 1.75679688 -27.8515625 1.7421875 C-29.44218506 1.70907471 -29.44218506 1.70907471 -31.06494141 1.67529297 C-34.43880526 2.04854525 -36.19580212 3.14707008 -39 5 C-41.33183607 5.67188497 -43.66501142 6.33915417 -46 7 C-46.66 7.66 -47.32 8.32 -48 9 C-51.0390625 9.1953125 -51.0390625 9.1953125 -54.625 9.125 C-55.81351562 9.10695313 -57.00203125 9.08890625 -58.2265625 9.0703125 C-59.14179688 9.04710938 -60.05703125 9.02390625 -61 9 C-48.26687712 -6.22537112 -17.0714686 -5.82928196 0 0 Z " fill="#E1E1E1" transform="translate(350,79)"/>
<path d="M0 0 C2 2 2 2 2.1953125 4.3828125 C2.17210937 5.28773438 2.14890625 6.19265625 2.125 7.125 C2.10695313 8.03507813 2.08890625 8.94515625 2.0703125 9.8828125 C2.04710937 10.58148438 2.02390625 11.28015625 2 12 C1.34 12 0.68 12 0 12 C0 12.66 0 13.32 0 14 C-0.66 14 -1.32 14 -2 14 C-1.87625 14.928125 -1.7525 15.85625 -1.625 16.8125 C-1.61342195 22.47416755 -4.73042584 27.54600309 -8 32 C-9.64611042 33.03348839 -11.31160004 34.03714833 -13 35 C-14.02551947 36.69851662 -15.04735401 38.40135952 -15.98046875 40.15234375 C-17.70180792 43.27185879 -19.42749448 45.48732019 -22 48 C-25.8125 48.875 -25.8125 48.875 -29 49 C-29 49.66 -29 50.32 -29 51 C-32.465 51.495 -32.465 51.495 -36 52 C-36 51.34 -36 50.68 -36 50 C-34.06676574 48.62128278 -32.12522875 47.33688628 -30.125 46.0625 C-19.99898551 39.31505454 -12.71268428 30.7225462 -7 20 C-6.62230469 19.34644531 -6.24460937 18.69289063 -5.85546875 18.01953125 C-2.73131117 12.34456337 -1.38437974 6.29263516 0 0 Z " fill="#E5E4E1" transform="translate(574,244)"/>
<path d="M0 0 C0.66 0 1.32 0 2 0 C2.56751747 3.48217507 2.75714285 6.53733339 2 10 C-0.63533047 12.93898995 -3.71189238 14.85903873 -7 17 C-7.52980469 17.55816406 -8.05960937 18.11632812 -8.60546875 18.69140625 C-10 20 -10 20 -13 20 C-14.35405148 22.41794907 -15.1096572 24.46604311 -15.75 27.1875 C-17.25862992 32.80836309 -20.91905634 37.91905634 -25 42 C-25 41.34 -25 40.68 -25 40 C-25.66 40 -26.32 40 -27 40 C-27.86299814 37.61602542 -28.21887192 36.48471722 -27.15478516 34.12817383 C-26.70409668 33.49419678 -26.2534082 32.86021973 -25.7890625 32.20703125 C-25.04088257 31.14367554 -25.04088257 31.14367554 -24.27758789 30.05883789 C-23.73223389 29.31754639 -23.18687988 28.57625488 -22.625 27.8125 C-22.07642334 27.05380615 -21.52784668 26.2951123 -20.96264648 25.51342773 C-10.46501557 11.25125562 -10.46501557 11.25125562 -4.328125 9.03515625 C-1.85438846 8.23756019 -1.85438846 8.23756019 -1.07421875 6.0546875 C-0.94660156 5.33539063 -0.81898438 4.61609375 -0.6875 3.875 C-0.460625 2.59625 -0.23375 1.3175 0 0 Z " fill="#EBECED" transform="translate(376,318)"/>
<path d="M0 0 C-0.33 0.99 -0.66 1.98 -1 3 C-1.57975586 2.9292627 -2.15951172 2.85852539 -2.75683594 2.78564453 C-9.60493215 2.01769681 -16.36296814 1.84495095 -23.25 1.875 C-24.34376953 1.87765869 -25.43753906 1.88031738 -26.56445312 1.88305664 C-39.56065192 0.94205662 -39.56065192 0.94205662 -51 4 C-52.68608966 4.07205511 -54.37500659 4.08386068 -56.0625 4.0625 C-56.98160156 4.05347656 -57.90070313 4.04445312 -58.84765625 4.03515625 C-59.55792969 4.02355469 -60.26820312 4.01195312 -61 4 C-58.349194 1.349194 -55.97561115 0.95137659 -52.375 -0.0625 C-51.18648437 -0.40410156 -49.99796875 -0.74570313 -48.7734375 -1.09765625 C-33.1655345 -4.82998088 -15.38080194 -4.47829242 0 0 Z " fill="#ECF0F1" transform="translate(179,138)"/>
<path d="M0 0 C3.78853723 0 5.78710347 1.43989795 8.4375 3.9375 C12.31133453 8.0667522 15.89280879 12.7150285 18 18 C17.65625 20.8046875 17.65625 20.8046875 17 23 C15.68 23 14.36 23 13 23 C11.61328125 21.3125 11.61328125 21.3125 10.3125 19 C7.43235666 14.2789403 4.03802102 11.25332331 -0.33984375 7.921875 C-2 6 -2 6 -1.81640625 3.328125 C-1 1 -1 1 0 0 Z " fill="#F31947" transform="translate(376,291)"/>
<path d="M0 0 C-0.25 2.375 -0.25 2.375 -1 5 C-3 6.125 -3 6.125 -5 7 C-5.33 7.99 -5.66 8.98 -6 10 C-8.328125 11.75390625 -8.328125 11.75390625 -11.25 13.5625 C-12.20390625 14.16191406 -13.1578125 14.76132813 -14.140625 15.37890625 C-16.72750577 16.84551215 -19.22777229 17.94456036 -22 19 C-23.98 19.99 -23.98 19.99 -26 21 C-26 17.7 -26 14.4 -26 11 C-25.67 11.66 -25.34 12.32 -25 13 C-21.59919423 12.89592083 -21.59919423 12.89592083 -18 12 C-16.26461808 9.60775041 -16.26461808 9.60775041 -15 7 C-12.875 5.8125 -12.875 5.8125 -11 5 C-10.67 4.34 -10.34 3.68 -10 3 C-3.76923077 0 -3.76923077 0 0 0 Z " fill="#FD0640" transform="translate(486,181)"/>
<path d="M0 0 C0.66 0.33 1.32 0.66 2 1 C0.03887265 3.52144946 -1.89394493 5.89697508 -4.1875 8.125 C-6.22886406 9.9666059 -6.22886406 9.9666059 -7 13 C-5.02 12.67 -3.04 12.34 -1 12 C-1.48210937 12.81984375 -1.96421875 13.6396875 -2.4609375 14.484375 C-3.09257812 15.56203125 -3.72421875 16.6396875 -4.375 17.75 C-5.31472656 19.35101563 -5.31472656 19.35101563 -6.2734375 20.984375 C-7.59772663 23.29738678 -8.84636846 25.59951417 -10 28 C-11.65 27.67 -13.3 27.34 -15 27 C-13.20652037 15.88042627 -7.63058535 8.08209928 0 0 Z " fill="#F51744" transform="translate(371,148)"/>
<path d="M0 0 C-0.6953125 1.89453125 -0.6953125 1.89453125 -2 4 C-4.2421875 5.01171875 -4.2421875 5.01171875 -6.875 5.6875 C-7.73867188 5.91824219 -8.60234375 6.14898437 -9.4921875 6.38671875 C-10.31976563 6.58910156 -11.14734375 6.79148437 -12 7 C-13.14855469 7.28810547 -13.14855469 7.28810547 -14.3203125 7.58203125 C-14.87460937 7.71996094 -15.42890625 7.85789062 -16 8 C-16 8.66 -16 9.32 -16 10 C-23.26153846 12.21538462 -23.26153846 12.21538462 -27 11.125 C-27.66 10.75375 -28.32 10.3825 -29 10 C-29 10.66 -29 11.32 -29 12 C-33.49885947 12.86516528 -36.01647791 13.30903272 -40 11 C-38.93265625 10.70867187 -37.8653125 10.41734375 -36.765625 10.1171875 C-27.25934515 7.50662675 -17.79888885 4.77878457 -8.37597656 1.88037109 C-7.5712793 1.63496582 -6.76658203 1.38956055 -5.9375 1.13671875 C-5.22464844 0.91717529 -4.51179688 0.69763184 -3.77734375 0.47143555 C-2 0 -2 0 0 0 Z " fill="#E7D3D8" transform="translate(510,308)"/>
<path d="M0 0 C1.98 0 3.96 0 6 0 C6 0.66 6 1.32 6 2 C8.97 2.495 8.97 2.495 12 3 C7.34272537 5.45105595 2.41971989 6.96986686 -2.5625 8.625 C-3.52091797 8.94984375 -4.47933594 9.2746875 -5.46679688 9.609375 C-6.38654297 9.91617187 -7.30628906 10.22296875 -8.25390625 10.5390625 C-9.09252197 10.81959473 -9.9311377 11.10012695 -10.79516602 11.38916016 C-13 12 -13 12 -16 12 C-16 11.34 -16 10.68 -16 10 C-16.99 9.67 -17.98 9.34 -19 9 C-16.79388434 8.18101734 -14.5854166 7.36972457 -12.375 6.5625 C-10.53035156 5.88380859 -10.53035156 5.88380859 -8.6484375 5.19140625 C-5.40451332 4.13209482 -2.3743785 3.45164758 1 3 C0.67 2.01 0.34 1.02 0 0 Z " fill="#FC063E" transform="translate(510,298)"/>
<path d="M0 0 C1.32 0 2.64 0 4 0 C4.09765625 6.15234375 4.09765625 6.15234375 4 8 C3.67 8.33 3.34 8.66 3 9 C2.93705556 10.74628556 2.94066337 12.49506079 2.97265625 14.2421875 C2.98490234 15.30824219 2.99714844 16.37429687 3.00976562 17.47265625 C3.04480181 19.73313891 3.08383676 21.99356328 3.12695312 24.25390625 C3.13791016 25.32253906 3.14886719 26.39117187 3.16015625 27.4921875 C3.17699463 28.47558105 3.19383301 29.45897461 3.21118164 30.47216797 C3 33 3 33 1 36 C-1.23698957 28.83809663 -1.26603022 22.08950407 -1.1875 14.625 C-1.18685547 13.43777344 -1.18621094 12.25054687 -1.18554688 11.02734375 C-1.14067 2.28134001 -1.14067 2.28134001 0 0 Z " fill="#EDE7EA" transform="translate(68,206)"/>
<path d="M0 0 C5.64863408 0.61638189 10.43272215 2.64562849 15.625 4.8125 C23.00939801 7.83645823 30.37183245 10.64333035 38 13 C38 13.33 38 13.66 38 14 C32.63818552 14.28724006 28.87311972 13.85293432 23.9296875 11.78515625 C21.78493029 10.86755212 21.78493029 10.86755212 18.5625 10.0625 C13.01334751 8.40748961 7.82292823 6.21528548 3 3 C2.01 3.495 2.01 3.495 1 4 C0.67 2.68 0.34 1.36 0 0 Z " fill="#EDEEEB" transform="translate(128,332)"/>
<path d="M0 0 C-0.33 0.66 -0.66 1.32 -1 2 C-5.29 1.34 -9.58 0.68 -14 0 C-14 -0.66 -14 -1.32 -14 -2 C-14.53882813 -1.67 -15.07765625 -1.34 -15.6328125 -1 C-18.56363255 0.2381022 -20.70637119 0.1290027 -23.875 0 C-28.4119057 -0.09394324 -31.73306076 0.35886952 -36 2 C-36.99 1.67 -37.98 1.34 -39 1 C-26.89443536 -6.83301242 -12.77875551 -5.42129022 0 0 Z " fill="#E3F0EC" transform="translate(424,150)"/>
<path d="M0 0 C-1.32 0.33 -2.64 0.66 -4 1 C-4 1.66 -4 2.32 -4 3 C-7.3 3 -10.6 3 -14 3 C-14 3.66 -14 4.32 -14 5 C-15.3921875 5.433125 -15.3921875 5.433125 -16.8125 5.875 C-20.09791667 6.8875 -20.09791667 6.8875 -23 9 C-25.13826845 9.24532937 -27.28741888 9.40237997 -29.4375 9.5 C-33.49389044 9.68459115 -36.49702431 9.86550867 -40 12 C-40.66 11.34 -41.32 10.68 -42 10 C-39.18938194 9.03583976 -36.37670402 8.07859159 -33.5625 7.125 C-32.77939453 6.85558594 -31.99628906 6.58617187 -31.18945312 6.30859375 C-26.40969981 4.69567288 -21.68047736 3.40420234 -16.73022461 2.42529297 C-14.98108948 2.15371712 -14.98108948 2.15371712 -14 1 C-12.40792179 0.57660579 -10.80042427 0.21033711 -9.1875 -0.125 C-8.31480469 -0.31320312 -7.44210937 -0.50140625 -6.54296875 -0.6953125 C-4.01036024 -0.99875868 -2.39920842 -0.79414358 0 0 Z " fill="#E3D8D5" transform="translate(462,323)"/>
<path d="M0 0 C0 1.98 0 3.96 0 6 C0.66 6.33 1.32 6.66 2 7 C-0.49272439 10.20493136 -2.97681337 13.27913203 -6 16 C-6.66 16 -7.32 16 -8 16 C-8 15.34 -8 14.68 -8 14 C-8.66 14 -9.32 14 -10 14 C-10 12.68 -10 11.36 -10 10 C-9.34 10 -8.68 10 -8 10 C-7.7834375 8.576875 -7.7834375 8.576875 -7.5625 7.125 C-7 4 -7 4 -6 2 C-1.55555556 0 -1.55555556 0 0 0 Z " fill="#FC023B" transform="translate(560,264)"/>
<path d="M0 0 C1.18698486 0.00193359 1.18698486 0.00193359 2.39794922 0.00390625 C9.74360362 0.12197986 16.52515279 1.39485638 23.625 3.3125 C23.625 3.9725 23.625 4.6325 23.625 5.3125 C22.98691406 5.14621094 22.34882813 4.97992188 21.69140625 4.80859375 C17.61894957 4.1497377 13.67758299 4.29377858 9.5625 4.375 C2.05443519 4.46152336 -5.01848064 3.95707119 -12.375 2.3125 C-8.5183492 -0.24839776 -4.46084426 -0.02989466 0 0 Z " fill="#F62650" transform="translate(326.375,61.6875)"/>
<path d="M0 0 C4.29153445 -0.08807085 8.58283224 -0.14074921 12.875 -0.1875 C14.07898438 -0.21263672 15.28296875 -0.23777344 16.5234375 -0.26367188 C23.88727301 -0.32370314 30.10491054 0.35087597 37 3 C37 3.66 37 4.32 37 5 C37.66 5.33 38.32 5.66 39 6 C37.10399631 5.68853528 35.20820413 5.37578283 33.3125 5.0625 C32.25675781 4.88847656 31.20101562 4.71445313 30.11328125 4.53515625 C28.27703943 4.21951619 26.44418006 3.87988443 24.62304688 3.48632812 C22.02463911 3.00456823 19.55643446 2.79690209 16.91796875 2.68359375 C15.98662109 2.64169922 15.05527344 2.59980469 14.09570312 2.55664062 C13.13599609 2.51732422 12.17628906 2.47800781 11.1875 2.4375 C10.20845703 2.39431641 9.22941406 2.35113281 8.22070312 2.30664062 C5.81392973 2.2009774 3.40706017 2.09887673 1 2 C0.67 1.34 0.34 0.68 0 0 Z " fill="#E92A4E" transform="translate(143,133)"/>
<path d="M0 0 C0.66 0.33 1.32 0.66 2 1 C1.79503906 1.7734375 1.59007813 2.546875 1.37890625 3.34375 C0.97478516 4.90609375 0.97478516 4.90609375 0.5625 6.5 C0.29566406 7.5209375 0.02882813 8.541875 -0.24609375 9.59375 C-2.33668784 19.03933575 -2.06332718 28.26291512 -1.90405273 37.8984375 C-1.87397359 39.84623951 -1.85670492 41.79422622 -1.83984375 43.7421875 C-1.82300537 44.8957373 -1.80616699 46.04928711 -1.78881836 47.23779297 C-2 50 -2 50 -4 52 C-4.16763742 46.78575406 -4.32819469 41.57135652 -4.48217773 36.35668945 C-4.53556608 34.58254115 -4.59089298 32.80845009 -4.64819336 31.03442383 C-4.73019269 28.48531435 -4.80523144 25.93608072 -4.87890625 23.38671875 C-4.90594131 22.59287277 -4.93297638 21.79902679 -4.96083069 20.98112488 C-5.05004432 17.69363284 -5.04883406 15.14650219 -4 12 C-3.23290085 9.42771643 -2.4751248 6.85279996 -1.71875 4.27734375 C-1 2 -1 2 0 0 Z " fill="#E33755" transform="translate(70,187)"/>
<path d="M0 0 C2.85231222 4.27846832 2.60225696 7.895631 3 13 C5.64 11.02 8.28 9.04 11 7 C11.99 8.485 11.99 8.485 13 10 C12.071875 10.556875 11.14375 11.11375 10.1875 11.6875 C7.03023608 13.97806402 5.85163926 15.66704933 4 19 C3.34 19 2.68 19 2 19 C1.26972015 16.96608008 0.56662313 14.92238768 -0.125 12.875 C-0.51945312 11.73804688 -0.91390625 10.60109375 -1.3203125 9.4296875 C-2.09009819 5.54536662 -1.55836913 3.58533878 0 0 Z " fill="#DE344E" transform="translate(400,327)"/>
<path d="M0 0 C0.495 0.99 0.495 0.99 1 2 C-0.47146484 2.22042969 -0.47146484 2.22042969 -1.97265625 2.4453125 C-12.01013986 4.07040503 -20.68496943 6.92680149 -30 11 C-31.6640492 11.67317344 -33.32967086 12.34256348 -35 13 C-34 10 -34 10 -31.85546875 8.61328125 C-30.97503906 8.18402344 -30.09460938 7.75476563 -29.1875 7.3125 C-27.87845703 6.65701172 -27.87845703 6.65701172 -26.54296875 5.98828125 C-24 5 -24 5 -20 5 C-20 4.34 -20 3.68 -20 3 C-17.60530271 2.49395076 -15.20948283 1.99500483 -12.8125 1.5 C-12.13896484 1.35691406 -11.46542969 1.21382812 -10.77148438 1.06640625 C-7.12490207 0.31930158 -3.72351043 -0.17352282 0 0 Z " fill="#F51E4D" transform="translate(141,134)"/>
<path d="M0 0 C-0.125 2.1875 -0.125 2.1875 -1 5 C-2.95927063 6.7143618 -4.95880212 8.38405168 -7 10 C-7.33 10.99 -7.66 11.98 -8 13 C-9.875 14.25 -9.875 14.25 -12 15 C-12.99 14.67 -13.98 14.34 -15 14 C-13.625 11.5 -13.625 11.5 -12 9 C-11.34 9 -10.68 9 -10 9 C-9.731875 8.236875 -9.46375 7.47375 -9.1875 6.6875 C-8.0364442 4.08247899 -7.19546244 2.75636995 -5 1 C-2 0 -2 0 0 0 Z " fill="#FD073C" transform="translate(378,147)"/>
<path d="M0 0 C-0.67546875 0.23074219 -1.3509375 0.46148437 -2.046875 0.69921875 C-7.63033798 2.74057154 -10.32135747 4.28673926 -14 9 C-17.19894552 10.96656487 -20.47026268 12.70863269 -24 14 C-24.66 13.67 -25.32 13.34 -26 13 C-20.35388113 6.28032332 -9.22791047 -2.86383428 0 0 Z " fill="#E9E5E3" transform="translate(396,147)"/>
<path d="M0 0 C4.41218891 -0.33091417 7.49933371 0.467929 11.56640625 2.1328125 C16.56705937 3.91474668 21.81711265 4.88599525 27 6 C24 8 24 8 21 9 C20.01 8.67 19.02 8.34 18 8 C18 7.34 18 6.68 18 6 C15.36 6 12.72 6 10 6 C10 5.34 10 4.68 10 4 C7.36 4 4.72 4 2 4 C1.34 2.68 0.68 1.36 0 0 Z " fill="#E6EAE6" transform="translate(186,352)"/>
<path d="M0 0 C-2.64 0.66 -5.28 1.32 -8 2 C-8 2.66 -8 3.32 -8 4 C-6.02 4 -4.04 4 -2 4 C-4.4135726 6.89150777 -6.39950758 7.60579601 -10.0625 8.3125 C-10.94035156 8.49425781 -11.81820313 8.67601562 -12.72265625 8.86328125 C-13.47417969 8.90839844 -14.22570312 8.95351563 -15 9 C-15.66 8.34 -16.32 7.68 -17 7 C-17.99 6.67 -18.98 6.34 -20 6 C-17.33273284 3.33273284 -14.66490592 2.59672782 -11.125 1.3125 C-9.89007813 0.85488281 -8.65515625 0.39726562 -7.3828125 -0.07421875 C-4 -1 -4 -1 0 0 Z " fill="#F12D51" transform="translate(452,319)"/>
<path d="M0 0 C-3.61491023 2.40994015 -6.59570656 2.75176686 -10.8203125 3.4375 C-11.53960937 3.623125 -12.25890625 3.80875 -13 4 C-13.33 4.66 -13.66 5.32 -14 6 C-15.65 6 -17.3 6 -19 6 C-19 6.66 -19 7.32 -19 8 C-21.64 7.67 -24.28 7.34 -27 7 C-27 6.34 -27 5.68 -27 5 C-21.64524365 2.71927044 -17.11189522 1.6141601 -11.296875 1.30859375 C-0.50756534 -0.14099037 -0.50756534 -0.14099037 0 0 Z " fill="#FB0A3E" transform="translate(471,316)"/>
<path d="M0 0 C3.5149153 0.67306889 4.71363628 1.82543696 6.9375 4.5625 C3.8905371 6.25683918 1.10928534 7.05717112 -2.3125 7.6875 C-3.65054687 7.93886719 -3.65054687 7.93886719 -5.015625 8.1953125 C-6.02882813 8.37707031 -6.02882813 8.37707031 -7.0625 8.5625 C-7.3925 7.5725 -7.7225 6.5825 -8.0625 5.5625 C-3.95125453 0.72574063 -3.95125453 0.72574063 0 0 Z " fill="#ECF0ED" transform="translate(495.0625,183.4375)"/>
<path d="M0 0 C1 2 1 2 0.5625 4.6875 C-1.31613025 8.67019612 -3.60343539 10.58217734 -6.98046875 13.3203125 C-9.21308411 15.09340928 -9.21308411 15.09340928 -11.625 17.9375 C-14 20 -14 20 -17.3125 20.3125 C-18.199375 20.209375 -19.08625 20.10625 -20 20 C-19.319375 19.46375 -18.63875 18.9275 -17.9375 18.375 C-15.69151659 16.55909852 -13.45997899 14.73411634 -11.25 12.875 C-10.36054687 12.12863281 -10.36054687 12.12863281 -9.453125 11.3671875 C-7.87728556 10.0420502 -7.87728556 10.0420502 -7 8 C-6.34 8 -5.68 8 -5 8 C-4.731875 7.4225 -4.46375 6.845 -4.1875 6.25 C-2.98280141 3.9674132 -1.59201885 2.0262058 0 0 Z " fill="#F3254C" transform="translate(553,266)"/>
<path d="M0 0 C3.16658663 -0.05880804 6.33302993 -0.09386406 9.5 -0.125 C10.386875 -0.14175781 11.27375 -0.15851563 12.1875 -0.17578125 C17.82323788 -0.2172205 22.59300232 0.39558714 28 2 C28 2.33 28 2.66 28 3 C22.2373997 4.05556451 16.8940924 3.94831638 11.0625 3.5625 C10.18787109 3.51029297 9.31324219 3.45808594 8.41210938 3.40429688 C6.27435368 3.2757979 4.13711331 3.13877359 2 3 C2 2.34 2 1.68 2 1 C1.34 0.67 0.68 0.34 0 0 Z " fill="#E7F2F0" transform="translate(322,77)"/>
<path d="M0 0 C10.79352955 0.70191051 21.63276966 2.73607688 31.62109375 7.01953125 C31.29109375 8.00953125 30.96109375 8.99953125 30.62109375 10.01953125 C29.6775 9.68179688 28.73390625 9.3440625 27.76171875 8.99609375 C19.74821728 6.19000504 12.05583887 4.19173148 3.62109375 3.01953125 C-1.04706768 2.18545053 -1.04706768 2.18545053 -3.37890625 1.01953125 C-2.37890625 0.01953125 -2.37890625 0.01953125 0 0 Z " fill="#ED2146" transform="translate(157.37890625,117.98046875)"/>
<path d="M0 0 C3.70860183 0.91418332 7.23572336 1.87593995 10.734375 3.42578125 C13.55875283 4.67502529 15.95075362 5.40364165 18.984375 5.86328125 C18.984375 6.52328125 18.984375 7.18328125 18.984375 7.86328125 C19.974375 8.19328125 20.964375 8.52328125 21.984375 8.86328125 C21.984375 9.52328125 21.984375 10.18328125 21.984375 10.86328125 C12.984375 7.86328125 3.984375 4.86328125 -5.015625 1.86328125 C-2.015625 -0.13671875 -2.015625 -0.13671875 0 0 Z " fill="#EE3057" transform="translate(291.015625,377.13671875)"/>
<path d="M0 0 C0.66 0.33 1.32 0.66 2 1 C1.54109375 1.51949219 1.0821875 2.03898437 0.609375 2.57421875 C-0.00421875 3.27160156 -0.6178125 3.96898437 -1.25 4.6875 C-2.21292969 5.77611328 -2.21292969 5.77611328 -3.1953125 6.88671875 C-5.13018686 9.0879899 -5.13018686 9.0879899 -7.125 12 C-9 14 -9 14 -11.75 14.3125 C-12.86375 14.1578125 -12.86375 14.1578125 -14 14 C-14 13.34 -14 12.68 -14 12 C-13.34 12 -12.68 12 -12 12 C-11.77570313 11.25363281 -11.55140625 10.50726563 -11.3203125 9.73828125 C-9.69929589 6.37635035 -7.97640877 5.2153442 -4.875 3.1875 C-3.96492188 2.58292969 -3.05484375 1.97835938 -2.1171875 1.35546875 C-1.41851562 0.90816406 -0.71984375 0.46085937 0 0 Z " fill="#EAF3EF" transform="translate(416,334)"/>
<path d="M0 0 C2 2 2 2 2.3125 4.9375 C2 8 2 8 0.5234375 9.359375 C-1.57311949 11.61720561 -1.49830484 13.27276443 -1.6875 16.3125 C-1.75710937 17.28960937 -1.82671875 18.26671875 -1.8984375 19.2734375 C-2.04612495 22.1193034 -2.04612495 22.1193034 -1.8125 25.4375 C-2 28 -2 28 -3.75 30.4375 C-6 32 -6 32 -8.25 31.75 C-8.8275 31.5025 -9.405 31.255 -10 31 C-9.18660156 30.63519531 -8.37320313 30.27039063 -7.53515625 29.89453125 C-4.71268745 28.22624391 -4.71268745 28.22624391 -4.43359375 25.13671875 C-4.43552734 23.42935547 -4.43552734 23.42935547 -4.4375 21.6875 C-4.17743522 13.89368367 -2.40754149 7.36819676 0 0 Z " fill="#E3D8D5" transform="translate(244,142)"/>
<path d="M0 0 C3.38428841 1.0502964 4.02867109 2.05324631 5.75 5.25 C6.94926579 8.84779738 7.52214775 11.2579411 7 15 C6.01 15.66 5.02 16.32 4 17 C2.04020631 14.06030946 1.51679931 12.44977414 0.875 9.0625 C0.70742188 8.20785156 0.53984375 7.35320312 0.3671875 6.47265625 C0 4 0 4 0 0 Z " fill="#FB0C40" transform="translate(452,172)"/>
<path d="M0 0 C0.99 0 1.98 0 3 0 C3 0.66 3 1.32 3 2 C3.66 2.33 4.32 2.66 5 3 C2.69 7.62 0.38 12.24 -2 17 C-2.33 17 -2.66 17 -3 17 C-3 15.35 -3 13.7 -3 12 C-3.66 12 -4.32 12 -5 12 C-4.37240135 9.07120629 -3.41377341 6.63904371 -2 4 C-1.01 4 -0.02 4 1 4 C0.67 2.68 0.34 1.36 0 0 Z " fill="#FD053C" transform="translate(345,346)"/>
<path d="M0 0 C0 0.33 0 0.66 0 1 C-8.57142857 1.14285714 -8.57142857 1.14285714 -12 0 C-12 0.99 -12 1.98 -12 3 C-13.7015625 3.2165625 -13.7015625 3.2165625 -15.4375 3.4375 C-18.80777201 3.61171478 -18.80777201 3.61171478 -20 5 C-21.68608966 5.07205511 -23.37500659 5.08386068 -25.0625 5.0625 C-25.98160156 5.05347656 -26.90070313 5.04445312 -27.84765625 5.03515625 C-28.55792969 5.02355469 -29.26820312 5.01195312 -30 5 C-22.86559946 -2.13440054 -9.2132152 -1.84264304 0 0 Z " fill="#DCD3CF" transform="translate(148,137)"/>
<path d="M0 0 C1.4540625 0.0309375 1.4540625 0.0309375 2.9375 0.0625 C2.6075 0.7225 2.2775 1.3825 1.9375 2.0625 C-0.38406597 2.46979228 -2.7193787 2.80688677 -5.0625 3.0625 C-5.0625 3.7225 -5.0625 4.3825 -5.0625 5.0625 C-10.5075 6.5475 -10.5075 6.5475 -16.0625 8.0625 C-16.0625 5.0625 -16.0625 5.0625 -14.0625 2.0625 C-11.71484375 1.5859375 -11.71484375 1.5859375 -9 1.4375 C-5.51410259 1.22744592 -3.2903933 0.06715088 0 0 Z " fill="#EEF0F1" transform="translate(132.0625,139.9375)"/>
<path d="M0 0 C0.33 0.66 0.66 1.32 1 2 C0.06398754 3.41764994 -0.8738792 4.83407568 -1.8125 6.25 C-2.33457031 7.03890625 -2.85664063 7.8278125 -3.39453125 8.640625 C-7.49090909 14.66060606 -7.49090909 14.66060606 -11 17 C-11.33 17.66 -11.66 18.32 -12 19 C-12.66 19 -13.32 19 -14 19 C-12.62111791 15.02682945 -10.78436958 12.18393796 -8.125 8.9375 C-7.44695312 8.10089844 -6.76890625 7.26429687 -6.0703125 6.40234375 C-4.1359826 4.15779113 -2.12510154 2.06315912 0 0 Z " fill="#DFE0DB" transform="translate(269,103)"/>
<path d="M0 0 C8.82923824 1.2698566 17.03541175 2.87548108 25 7 C20.0041003 8.62880214 15.75718829 7.00966021 10.8125 5.75 C9.88501953 5.53214844 8.95753906 5.31429688 8.00195312 5.08984375 C7.12087891 4.86941406 6.23980469 4.64898437 5.33203125 4.421875 C4.52483643 4.22174805 3.7176416 4.02162109 2.88598633 3.81542969 C2.26361084 3.54633789 1.64123535 3.27724609 1 3 C0.67 2.01 0.34 1.02 0 0 Z " fill="#EE284F" transform="translate(192,351)"/>
<path d="M0 0 C0.7425 0.0825 1.485 0.165 2.25 0.25 C0.20434055 5.25050088 -1.82538419 7.88618441 -6.75 10.25 C-9.625 9.5 -9.625 9.5 -11.75 8.25 C-10.63625 7.38375 -10.63625 7.38375 -9.5 6.5 C-6.75511268 4.3748954 -6.75511268 4.3748954 -4.75 2 C-2.75 0.25 -2.75 0.25 0 0 Z " fill="#E8ECEC" transform="translate(470.75,197.75)"/>
<path d="M0 0 C1.32 0 2.64 0 4 0 C2.63408831 3.54243452 1.09068516 6.92627929 -0.625 10.3125 C-1.07101563 11.19550781 -1.51703125 12.07851562 -1.9765625 12.98828125 C-2.31429687 13.65214844 -2.65203125 14.31601563 -3 15 C-5 12 -5 12 -4.75 9.0625 C-4.09911834 6.40473321 -3.35855538 4.35482933 -2 2 C-1.34 2 -0.68 2 0 2 C0 1.34 0 0.68 0 0 Z " fill="#E9E8E7" transform="translate(250,132)"/>
<path d="M0 0 C7.59064664 0.48701051 14.67059167 1.99763587 22 4 C20.1875 5.0625 20.1875 5.0625 18 6 C17.01 5.67 16.02 5.34 15 5 C13.27204648 4.93197033 11.54164635 4.91504355 9.8125 4.9375 C8.91144531 4.94652344 8.01039063 4.95554687 7.08203125 4.96484375 C6.05142578 4.98224609 6.05142578 4.98224609 5 5 C5 4.34 5 3.68 5 3 C4.01 3 3.02 3 2 3 C2 2.34 2 1.68 2 1 C1.34 0.67 0.68 0.34 0 0 Z " fill="#EFE6E5" transform="translate(226,363)"/>
<path d="M0 0 C3.60409539 -0.05906119 7.20806309 -0.09394639 10.8125 -0.125 C11.81732422 -0.14175781 12.82214844 -0.15851563 13.85742188 -0.17578125 C20.78945544 -0.22036024 27.22940584 0.51733934 34 2 C34 2.33 34 2.66 34 3 C27.73 3 21.46 3 15 3 C15 2.67 15 2.34 15 2 C10.05 1.67 5.1 1.34 0 1 C0 0.67 0 0.34 0 0 Z " fill="#F0CACF" transform="translate(142,135)"/>
<path d="M0 0 C0.33 0 0.66 0 1 0 C0.88490339 1.41750563 0.75746342 2.83401169 0.625 4.25 C0.55539062 5.03890625 0.48578125 5.8278125 0.4140625 6.640625 C-0.01951551 9.11120156 -0.82825049 10.79853123 -2 13 C-2.69730806 15.3243602 -3.36912152 17.65673706 -4 20 C-4.66 20 -5.32 20 -6 20 C-6.33 20.66 -6.66 21.32 -7 22 C-6.35983027 16.86243532 -4.80299667 12.41209819 -2.9375 7.625 C-2.65583984 6.88894531 -2.37417969 6.15289062 -2.08398438 5.39453125 C-1.39433382 3.5944264 -0.69786068 1.7969379 0 0 Z " fill="#E6D1D2" transform="translate(339,374)"/>
<path d="M0 0 C0 0.66 0 1.32 0 2 C-0.67546875 2.19335938 -1.3509375 2.38671875 -2.046875 2.5859375 C-2.93890625 2.84632813 -3.8309375 3.10671875 -4.75 3.375 C-5.63171875 3.63023437 -6.5134375 3.88546875 -7.421875 4.1484375 C-9.97274719 4.91395476 -9.97274719 4.91395476 -12.09375 6.09375 C-15.01847679 7.48419388 -17.8181666 7.12237821 -21 7 C-18.17380137 4.17380137 -14.73799704 3.18636653 -11.0625 1.8125 C-10.33353516 1.52697266 -9.60457031 1.24144531 -8.85351562 0.94726562 C-3.36316023 -1.12105341 -3.36316023 -1.12105341 0 0 Z " fill="#EF2D52" transform="translate(511,299)"/>
<path d="M0 0 C14.78132118 -0.3690205 14.78132118 -0.3690205 21 2 C21 2.66 21 3.32 21 4 C21.99 4.33 22.98 4.66 24 5 C21.15820312 4.64477539 21.15820312 4.64477539 18.31640625 4.28955078 C17.16978516 4.14622314 17.16978516 4.14622314 16 4 C13.16666667 3.64583333 10.33333333 3.29166667 7.5 2.9375 C6.77296875 2.84662109 6.0459375 2.75574219 5.296875 2.66210938 C3.53125 2.44140625 1.765625 2.22070312 0 2 C0 1.34 0 0.68 0 0 Z " fill="#F22945" transform="translate(326,74)"/>
<path d="M0 0 C-0.33 1.32 -0.66 2.64 -1 4 C-1.89203125 4.04898437 -2.7840625 4.09796875 -3.703125 4.1484375 C-4.87359375 4.22320312 -6.0440625 4.29796875 -7.25 4.375 C-8.99023438 4.47941406 -8.99023438 4.47941406 -10.765625 4.5859375 C-13.70694334 4.96248308 -15.49949011 5.4774123 -18 7 C-18.66 6.34 -19.32 5.68 -20 5 C-17.79567015 4.15450362 -15.58751467 3.32357186 -13.375 2.5 C-11.53035156 1.80390625 -11.53035156 1.80390625 -9.6484375 1.09375 C-6.18957134 0.05683081 -3.57814964 -0.22019382 0 0 Z " fill="#E9E1E2" transform="translate(440,328)"/>
<path d="M0 0 C0.33 0 0.66 0 1 0 C1.48350422 7.89723556 -0.32335279 15.33532703 -2 23 C-2.66 23 -3.32 23 -4 23 C-4.65720455 14.94924431 -2.22928846 7.64327471 0 0 Z " fill="#EB3952" transform="translate(235,131)"/>
<path d="M0 0 C0.66 0 1.32 0 2 0 C2.10824843 1.6026782 2.18570645 3.20745748 2.25 4.8125 C2.29640625 5.70582031 2.3428125 6.59914063 2.390625 7.51953125 C2 10 2 10 0.125 11.84375 C-2 13 -2 13 -4.25 12.6875 C-4.8275 12.460625 -5.405 12.23375 -6 12 C-5.34 10.68 -4.68 9.36 -4 8 C-3.34 8 -2.68 8 -2 8 C-1.34 5.36 -0.68 2.72 0 0 Z " fill="#E1E9E8" transform="translate(376,318)"/>
<path d="M0 0 C-3.60990951 3.1304684 -7.57971689 4.56592875 -12 6.1875 C-12.7115625 6.46013672 -13.423125 6.73277344 -14.15625 7.01367188 C-17.67061524 8.32172386 -20.20712875 9 -24 9 C-24 8.34 -24 7.68 -24 7 C-23.04738281 6.66226562 -22.09476562 6.32453125 -21.11328125 5.9765625 C-19.8463359 5.52609304 -18.57940984 5.07556933 -17.3125 4.625 C-16.07113281 4.18414062 -14.82976563 3.74328125 -13.55078125 3.2890625 C-11.42399636 2.51696238 -9.30799643 1.71231312 -7.21875 0.84375 C-4.68540474 -0.11963482 -2.68793478 -0.15359627 0 0 Z " fill="#ED264D" transform="translate(528,300)"/>
<path d="M0 0 C3.83663072 1.34929464 6.65172569 3.07751025 9.8125 5.625 C10.99779297 6.57246094 10.99779297 6.57246094 12.20703125 7.5390625 C12.79871094 8.02117187 13.39039063 8.50328125 14 9 C12.125 10.0625 12.125 10.0625 10 11 C9.34 10.67 8.68 10.34 8 10 C8 9.01 8 8.02 8 7 C6.68 7 5.36 7 4 7 C4 6.34 4 5.68 4 5 C3.34 5 2.68 5 2 5 C2 4.34 2 3.68 2 3 C1.34 3 0.68 3 0 3 C0 2.01 0 1.02 0 0 Z " fill="#ECECEB" transform="translate(424,151)"/>
<path d="M0 0 C1.78515625 0.26953125 1.78515625 0.26953125 4.0625 0.8125 C4.866875 1.00199219 5.67125 1.19148438 6.5 1.38671875 C7.325 1.58910156 8.15 1.79148437 9 2 C9.78375 2.19207031 10.5675 2.38414062 11.375 2.58203125 C13.2517086 3.04785714 15.12609858 3.52300691 17 4 C16.67 4.66 16.34 5.32 16 6 C13.69 6 11.38 6 9 6 C9 5.34 9 4.68 9 4 C6.98177083 4.09765625 4.96354167 4.1953125 2.9453125 4.29296875 C2.30335938 4.19628906 1.66140625 4.09960938 1 4 C0.34 3.01 -0.32 2.02 -1 1 C-0.67 0.67 -0.34 0.34 0 0 Z " fill="#EDE4E2" transform="translate(249,368)"/>
<path d="M0 0 C2.98440625 0 4.63591185 0.68566303 6.88671875 2.62890625 C8.63460934 4.38388767 10.33706129 6.16453738 12 8 C11.01 8.33 10.02 8.66 9 9 C8.67 8.01 8.34 7.02 8 6 C6.68 6.33 5.36 6.66 4 7 C3.67 5.68 3.34 4.36 3 3 C1.68 3 0.36 3 -1 3 C-1 3.66 -1 4.32 -1 5 C-0.01 5.33 0.98 5.66 2 6 C1.67 6.99 1.34 7.98 1 9 C-0.5625 7.8125 -0.5625 7.8125 -2 6 C-1.57894737 1.57894737 -1.57894737 1.57894737 0 0 Z " fill="#F61D42" transform="translate(376,291)"/>
<path d="M0 0 C6.83354592 -1.17343718 12.79510665 0.19023698 19 3 C18.67 3.66 18.34 4.32 18 5 C11.4 4.34 4.8 3.68 -2 3 C-1.34 2.01 -0.68 1.02 0 0 Z " fill="#F82A57" transform="translate(400,143)"/>
<path d="M0 0 C0.66 0 1.32 0 2 0 C4.72669709 5.36818489 6.88257262 9.82199168 6 16 C5.01 16.66 4.02 17.32 3 18 C2 12 1 6 0 0 Z " fill="#EC2F51" transform="translate(399,108)"/>
<path d="M0 0 C4.54270334 1.07372988 8.9855061 2.4135533 13.4375 3.8125 C13.1075 4.4725 12.7775 5.1325 12.4375 5.8125 C7.99870428 5.91338172 4.43271305 5.81010653 0.4375 3.8125 C0.4375 3.1525 0.4375 2.4925 0.4375 1.8125 C-1.5425 1.8125 -3.5225 1.8125 -5.5625 1.8125 C-2.5625 -0.1875 -2.5625 -0.1875 0 0 Z " fill="#E6ECE6" transform="translate(169.5625,346.1875)"/>
<path d="M0 0 C-0.97857136 2.93571407 -1.69294651 3.84647326 -4.5 5.25 C-9.04535236 6.22400408 -13.37139834 6.16465381 -18 6 C-15.2808668 3.2808668 -12.69136288 2.89617621 -9 1.875 C-7.741875 1.52179688 -6.48375 1.16859375 -5.1875 0.8046875 C-2 0 -2 0 0 0 Z " fill="#E1D2D3" transform="translate(510,308)"/>
<path d="M0 0 C0 0.33 0 0.66 0 1 C-1.7015625 1.05607422 -1.7015625 1.05607422 -3.4375 1.11328125 C-11.18665839 1.430222 -17.8601167 1.71565368 -25 5 C-25.99 5 -26.98 5 -28 5 C-28 4.34 -28 3.68 -28 3 C-18.51872509 -1.77135433 -10.21473398 -1.10170636 0 0 Z " fill="#FF2F57" transform="translate(515,181)"/>
<path d="M0 0 C-0.33 0.66 -0.66 1.32 -1 2 C-7.56016826 3.49094733 -14.30976284 3.09054456 -21 3 C-17.5275307 0.68502047 -15.173209 0.38618761 -11.0625 -0.1875 C-9.83660156 -0.36667969 -8.61070312 -0.54585938 -7.34765625 -0.73046875 C-4.47429544 -0.96181285 -2.67489081 -0.94526216 0 0 Z " fill="#F03453" transform="translate(140,119)"/>
<path d="M0 0 C3 2 3 2 3.8125 5.4375 C4 9 4 9 2 12 C-2.875 10.25 -2.875 10.25 -4 8 C-3.01 8 -2.02 8 -1 8 C-0.67 5.36 -0.34 2.72 0 0 Z " fill="#F0EFF1" transform="translate(331,396)"/>
<path d="M0 0 C-1.43429001 0.67354499 -2.87257057 1.33859701 -4.3125 2 C-5.11300781 2.37125 -5.91351563 2.7425 -6.73828125 3.125 C-9 4 -9 4 -12 4 C-12 4.66 -12 5.32 -12 6 C-15.4352048 8.29013653 -16.985331 8.17842973 -21 8 C-18.32649506 4.74870462 -14.84255486 3.35720599 -11.0625 1.75 C-10.44181641 1.46898438 -9.82113281 1.18796875 -9.18164062 0.8984375 C-5.79514321 -0.55858588 -3.49615163 -1.50711298 0 0 Z " fill="#E4CCCD" transform="translate(310,80)"/>
<path d="M0 0 C0.33 1.32 0.66 2.64 1 4 C0.34 4 -0.32 4 -1 4 C-1 6.64 -1 9.28 -1 12 C-1.99 12 -2.98 12 -4 12 C-4.33 13.65 -4.66 15.3 -5 17 C-5.66 16.67 -6.32 16.34 -7 16 C-5.26017005 10.18738629 -3.1889511 5.16830006 0 0 Z " fill="#EF294F" transform="translate(347,338)"/>
<path d="M0 0 C0.33 0 0.66 0 1 0 C1.0580966 3.9166043 1.09362893 7.83309763 1.125 11.75 C1.14175781 12.86117187 1.15851562 13.97234375 1.17578125 15.1171875 C1.18222656 16.18710938 1.18867187 17.25703125 1.1953125 18.359375 C1.20578613 19.34389648 1.21625977 20.32841797 1.22705078 21.34277344 C0.99489618 24.05973111 0.39036273 25.68112513 -1 28 C-1.66 28 -2.32 28 -3 28 C-2.86722656 27.40316406 -2.73445312 26.80632812 -2.59765625 26.19140625 C-0.82805389 17.49839611 -0.39376125 8.83890388 0 0 Z " fill="#DD5469" transform="translate(563,226)"/>
<path d="M0 0 C5.86809507 0.52393706 10.54873741 1.76108858 16 4 C15.67 4.66 15.34 5.32 15 6 C10.71 5.34 6.42 4.68 2 4 C2 3.34 2 2.68 2 2 C1.34 2 0.68 2 0 2 C0 1.34 0 0.68 0 0 Z " fill="#E5EBE8" transform="translate(408,146)"/>
<path d="M0 0 C5.20616939 0.50216988 8.95594705 3.18420885 13.25 5.9375 C13.9821875 6.39318359 14.714375 6.84886719 15.46875 7.31835938 C20.86572233 10.73144465 20.86572233 10.73144465 22 13 C16.59981616 11.72100909 12.82547883 8.88611002 8.4140625 5.6875 C5.69373641 3.78591283 3.02186203 2.35188564 0 1 C0 0.67 0 0.34 0 0 Z " fill="#EB284F" transform="translate(190,127)"/>
<path d="M0 0 C1.93922422 0.45098238 3.87633594 0.91105559 5.8125 1.375 C6.89144531 1.63023437 7.97039062 1.88546875 9.08203125 2.1484375 C12 3 12 3 15 5 C14 6 14 6 12.15234375 6.09765625 C10.1015625 6.06510417 8.05078125 6.03255208 6 6 C6 5.34 6 4.68 6 4 C5.34 4 4.68 4 4 4 C4 3.34 4 2.68 4 2 C2.35 2.33 0.7 2.66 -1 3 C-0.67 2.01 -0.34 1.02 0 0 Z " fill="#EBEDE8" transform="translate(284,378)"/>
<path d="M0 0 C0.66 0 1.32 0 2 0 C1.5875 1.19625 1.175 2.3925 0.75 3.625 C-1.38790069 10.0182437 -3.18144228 16.51042602 -5 23 C-5.33 23 -5.66 23 -6 23 C-6.08159574 18.83861737 -5.98248524 15.0527516 -5 11 C-4.34 11 -3.68 11 -3 11 C-2.67 8.69 -2.34 6.38 -2 4 C-1.34 4 -0.68 4 0 4 C0 2.68 0 1.36 0 0 Z " fill="#EE2749" transform="translate(246,133)"/>
<path d="M0 0 C1.875 0.1875 1.875 0.1875 4 1 C4.68132451 2.66072849 5.34742127 4.327767 6 6 C7.3153341 6.70151152 8.65117592 7.36525925 10 8 C12.25 10.625 12.25 10.625 14 13 C11 13 11 13 8.73828125 11.1015625 C7.93777344 10.28429687 7.13726562 9.46703125 6.3125 8.625 C5.50425781 7.81289063 4.69601563 7.00078125 3.86328125 6.1640625 C2 4 2 4 2 2 C1.34 2 0.68 2 0 2 C0 1.34 0 0.68 0 0 Z " fill="#EF2A49" transform="translate(74,290)"/>
<path d="M0 0 C0 0.99 0 1.98 0 3 C-1.03125 3.433125 -2.0625 3.86625 -3.125 4.3125 C-5.59569034 5.35779207 -7.87715435 6.47231388 -10.25 7.75 C-13 9 -13 9 -16 8 C-14.20909242 6.8529806 -12.41725003 5.70742065 -10.625 4.5625 C-9.12839844 3.60537109 -9.12839844 3.60537109 -7.6015625 2.62890625 C-3.4028777 0 -3.4028777 0 0 0 Z " fill="#EE2A50" transform="translate(492,175)"/>
<path d="M0 0 C0.66 0.33 1.32 0.66 2 1 C1.2884375 1.61875 1.2884375 1.61875 0.5625 2.25 C-1.15276627 3.89078817 -1.15276627 3.89078817 -1.5 6.125 C-1.665 6.74375 -1.83 7.3625 -2 8 C-2.99 8.33 -3.98 8.66 -5 9 C-5 10.65 -5 12.3 -5 14 C-8 15 -8 15 -11 14 C-9.35504034 11.85349184 -7.70907674 9.70776711 -6.0625 7.5625 C-5.59392578 6.95083984 -5.12535156 6.33917969 -4.64257812 5.70898438 C-1.11328125 1.11328125 -1.11328125 1.11328125 0 0 Z " fill="#EF294F" transform="translate(257,95)"/>
<path d="M0 0 C2.06240906 3.09361358 2.38991902 4.46698546 2.75 8.0625 C2.84796875 8.94035156 2.9459375 9.81820313 3.046875 10.72265625 C3 13 3 13 1 15 C0.44058641 13.25559202 -0.09691897 11.50414743 -0.625 9.75 C-0.92664063 8.77546875 -1.22828125 7.8009375 -1.5390625 6.796875 C-2.05220752 3.68321539 -1.71056541 2.58430745 0 0 Z " fill="#E3445A" transform="translate(400,327)"/>
<path d="M0 0 C0.99 0 1.98 0 3 0 C4.19088986 5.38027025 5.2919519 10.45291384 5 16 C4.34 16 3.68 16 3 16 C2.49411853 14.08487728 1.99551609 12.16783078 1.5 10.25 C1.2215625 9.18265625 0.943125 8.1153125 0.65625 7.015625 C0 4 0 4 0 0 Z " fill="#ED2D50" transform="translate(48,232)"/>
<path d="M0 0 C0.66 0 1.32 0 2 0 C3.47265625 1.79296875 3.47265625 1.79296875 5.0625 4.1875 C5.58972656 4.96480469 6.11695313 5.74210938 6.66015625 6.54296875 C8.03809267 9.06985506 8.59232823 11.16642955 9 14 C5.23193471 12.74397824 4.78753493 11.48987433 2.8125 8.125 C2.28269531 7.24070313 1.75289062 6.35640625 1.20703125 5.4453125 C0 3 0 3 0 0 Z " fill="#F4274B" transform="translate(560,192)"/>
<path d="M0 0 C1.32 0.66 2.64 1.32 4 2 C2.84881881 5.45354356 1.9436488 6.05140647 -0.9375 8.125 C-1.64777344 8.64320312 -2.35804688 9.16140625 -3.08984375 9.6953125 C-5 11 -5 11 -7 12 C-6.71125 11.443125 -6.4225 10.88625 -6.125 10.3125 C-4.9586747 7.91505355 -3.9660119 5.48403061 -3 3 C-2.34 3 -1.68 3 -1 3 C-0.67 2.01 -0.34 1.02 0 0 Z " fill="#F0F1F0" transform="translate(285,91)"/>
<path d="M0 0 C1.32 0 2.64 0 4 0 C4 3.3 4 6.6 4 10 C2.68 9.67 1.36 9.34 0 9 C0 6.03 0 3.06 0 0 Z " fill="#FA1C44" transform="translate(326,394)"/>
<path d="M0 0 C0 1.65 0 3.3 0 5 C-2.64 5 -5.28 5 -8 5 C-8 4.34 -8 3.68 -8 3 C-8.66 3 -9.32 3 -10 3 C-10 2.34 -10 1.68 -10 1 C-8.5209084 0.83266843 -7.04172444 0.66615314 -5.5625 0.5 C-4.32693359 0.36078125 -4.32693359 0.36078125 -3.06640625 0.21875 C-1 0 -1 0 0 0 Z " fill="#FE0942" transform="translate(480,311)"/>
<path d="M0 0 C2 2 2 2 2 6 C2.66 6 3.32 6 4 6 C4.625 8.875 4.625 8.875 5 12 C4.34 12.66 3.68 13.32 3 14 C2.13633178 12.21289414 1.28431406 10.4201535 0.4375 8.625 C-0.03816406 7.62726563 -0.51382813 6.62953125 -1.00390625 5.6015625 C-1.49697266 4.31378906 -1.49697266 4.31378906 -2 3 C-1 1 -1 1 0 0 Z " fill="#EDE4E5" transform="translate(74,250)"/>
<path d="M0 0 C-0.8125 1.9375 -0.8125 1.9375 -2 4 C-2.99 4.33 -3.98 4.66 -5 5 C-5.6496875 6.2684375 -5.6496875 6.2684375 -6.3125 7.5625 C-6.869375 8.366875 -7.42625 9.17125 -8 10 C-11.1875 10.3125 -11.1875 10.3125 -14 10 C-14 8.02 -14 6.04 -14 4 C-13.67 4 -13.34 4 -13 4 C-13 5.65 -13 7.3 -13 9 C-12.22914063 8.3503125 -11.45828125 7.700625 -10.6640625 7.03125 C-9.15972656 5.77828125 -9.15972656 5.77828125 -7.625 4.5 C-6.62726563 3.6646875 -5.62953125 2.829375 -4.6015625 1.96875 C-2 0 -2 0 0 0 Z " fill="#E82B50" transform="translate(476,184)"/>
<path d="M0 0 C0.36334661 7.38804781 0.36334661 7.38804781 -1.1875 10 C-3.55995679 11.30894168 -5.3335118 11.21620175 -8 11 C-8.33 10.01 -8.66 9.02 -9 8 C-8.01 8 -7.02 8 -6 8 C-6 8.66 -6 9.32 -6 10 C-5.34 10 -4.68 10 -4 10 C-3.95101562 9.36191406 -3.90203125 8.72382813 -3.8515625 8.06640625 C-3.77679688 7.24011719 -3.70203125 6.41382813 -3.625 5.5625 C-3.55539063 4.73878906 -3.48578125 3.91507813 -3.4140625 3.06640625 C-3.27742187 2.38449219 -3.14078125 1.70257813 -3 1 C-1 0 -1 0 0 0 Z " fill="#E93E5E" transform="translate(240,162)"/>
<path d="M0 0 C2.64 0.33 5.28 0.66 8 1 C7.67 1.99 7.34 2.98 7 4 C3.9375 5.1875 3.9375 5.1875 1 6 C0.01 4.68 -0.98 3.36 -2 2 C-1.34 2 -0.68 2 0 2 C0 1.34 0 0.68 0 0 Z " fill="#FB0B41" transform="translate(442,160)"/>
<path d="M0 0 C0 1.32 0 2.64 0 4 C-2 5.75 -2 5.75 -4 7 C-4.66 6.67 -5.32 6.34 -6 6 C-6 6.66 -6 7.32 -6 8 C-6.66 8 -7.32 8 -8 8 C-8 8.66 -8 9.32 -8 10 C-9.32 9.67 -10.64 9.34 -12 9 C-10.38050958 7.49405319 -8.75424026 5.99539332 -7.125 4.5 C-6.22007813 3.6646875 -5.31515625 2.829375 -4.3828125 1.96875 C-2 0 -2 0 0 0 Z " fill="#E5D9E1" transform="translate(100,152)"/>
<path d="M0 0 C6.22987798 0.50512524 11.45474233 3.32604123 17 6 C17 6.33 17 6.66 17 7 C10.59859065 6.53444296 5.73230171 4.85288164 0 2 C0 1.34 0 0.68 0 0 Z " fill="#EB2E52" transform="translate(148,323)"/>
<path d="M0 0 C4.66666667 4 9.33333333 8 14 12 C13.01 12.495 13.01 12.495 12 13 C11.01 12.67 10.02 12.34 9 12 C9 11.34 9 10.68 9 10 C8.443125 9.7525 7.88625 9.505 7.3125 9.25 C4.53730243 7.74989321 2.2964229 6.16884385 0 4 C0 2.68 0 1.36 0 0 Z " fill="#E81F4E" transform="translate(92,285)"/>
<path d="M0 0 C1.32 0.33 2.64 0.66 4 1 C0.25 4 0.25 4 -2 4 C-2 4.66 -2 5.32 -2 6 C-8.625 8.875 -8.625 8.875 -12 10 C-10.77974937 6.3392481 -9.873509 6.07660559 -6.5625 4.3125 C-5.75941406 3.87550781 -4.95632813 3.43851562 -4.12890625 2.98828125 C-2 2 -2 2 0 2 C0 1.34 0 0.68 0 0 Z " fill="#F1223F" transform="translate(540,290)"/>
<path d="M0 0 C0.66 0 1.32 0 2 0 C4.96681758 4.62823543 5.19975858 7.69786373 4.51953125 12.94921875 C4 15 4 15 2 18 C0.35 17.67 -1.3 17.34 -3 17 C-2.0409375 16.5359375 -2.0409375 16.5359375 -1.0625 16.0625 C0.93610821 15.1654837 0.93610821 15.1654837 2 14 C2.31046812 8.8255313 1.58455205 4.85269066 0 0 Z " fill="#E9DEE2" transform="translate(402,110)"/>
<path d="M0 0 C0.33 0 0.66 0 1 0 C2.390625 8.34375 2.390625 8.34375 0 12 C0 12.66 0 13.32 0 14 C-1.32 14 -2.64 14 -4 14 C-3.52188823 12.22888156 -3.0424722 10.45811517 -2.5625 8.6875 C-2.29566406 7.70136719 -2.02882813 6.71523438 -1.75390625 5.69921875 C-1.21920575 3.78482474 -0.62855462 1.88566385 0 0 Z " fill="#EF2F53" transform="translate(336,362)"/>
<path d="M0 0 C5.96564796 0.50771472 10.63809899 2.38592128 16 5 C15.67 5.99 15.34 6.98 15 8 C10.05 5.69 5.1 3.38 0 1 C0 0.67 0 0.34 0 0 Z " fill="#F0284D" transform="translate(116,324)"/>
<path d="M0 0 C0.99 0 1.98 0 3 0 C1.35433477 5.68502535 -1.29032784 10.76681636 -4 16 C-4.66 15.01 -5.32 14.02 -6 13 C-5.47599609 11.96939453 -5.47599609 11.96939453 -4.94140625 10.91796875 C-4.48636719 10.01691406 -4.03132812 9.11585938 -3.5625 8.1875 C-3.11003906 7.29417969 -2.65757812 6.40085937 -2.19140625 5.48046875 C-0.9168395 2.96000522 -0.9168395 2.96000522 0 0 Z " fill="#EF2552" transform="translate(569,254)"/>
<path d="M0 0 C0.66 0.33 1.32 0.66 2 1 C0.08183691 3.46620969 -1.7824224 5.79560893 -4.0625 7.9375 C-6.37074574 10.39466482 -7.6116007 12.94552154 -9 16 C-9.66 16 -10.32 16 -11 16 C-9.66534338 12.22959506 -7.99723337 9.42875097 -5.5 6.3125 C-4.8915625 5.54550781 -4.283125 4.77851563 -3.65625 3.98828125 C-2 2 -2 2 0 0 Z " fill="#E83C5B" transform="translate(371,148)"/>
<path d="M0 0 C1.58624235 0.42683239 3.1689098 0.86696158 4.75 1.3125 C6.07257813 1.67794922 6.07257813 1.67794922 7.421875 2.05078125 C10.05772505 3.02125331 11.85407326 4.21005644 14 6 C12.68 6.33 11.36 6.66 10 7 C10 6.34 10 5.68 10 5 C8.72125 4.855625 7.4425 4.71125 6.125 4.5625 C3.74307106 4.29357254 2.15547309 4.07773654 0 3 C0 2.01 0 1.02 0 0 Z " fill="#EEE8E8" transform="translate(180,139)"/>
<path d="M0 0 C2.06526175 0.06500109 4.12840126 0.20282677 6.1875 0.375 C7.87939453 0.51035156 7.87939453 0.51035156 9.60546875 0.6484375 C12.76904012 0.9760801 15.8701975 1.43958013 19 2 C17 4 17 4 14.57421875 4.01171875 C13.62160156 3.90472656 12.66898438 3.79773438 11.6875 3.6875 C10.74261719 3.58824219 9.79773438 3.48898438 8.82421875 3.38671875 C1.86857143 2.43428571 1.86857143 2.43428571 -1 1 C-0.67 0.67 -0.34 0.34 0 0 Z " fill="#F3274B" transform="translate(155,118)"/>
<path d="M0 0 C0 0.66 0 1.32 0 2 C-5.28 2.66 -10.56 3.32 -16 4 C-16 3.34 -16 2.68 -16 2 C-10.42932723 0.40837921 -5.78898419 -0.20674944 0 0 Z " fill="#F9183F" transform="translate(326,74)"/>
<path d="M0 0 C0.99424641 2.98273923 1.31845551 4.89505874 1 8 C0.01 8.66 -0.98 9.32 -2 10 C-3.19232613 12.05003955 -3.19232613 12.05003955 -4 14 C-4.33 11.36 -4.66 8.72 -5 6 C-3.68 6 -2.36 6 -1 6 C-1.33 5.01 -1.66 4.02 -2 3 C-1.34 2.01 -0.68 1.02 0 0 Z " fill="#FD0B3D" transform="translate(337,370)"/>
<path d="M0 0 C0.33 0.66 0.66 1.32 1 2 C2.65 2 4.3 2 6 2 C5.34 3.98 4.68 5.96 4 8 C2.35 7.67 0.7 7.34 -1 7 C-0.67 4.69 -0.34 2.38 0 0 Z " fill="#F02F56" transform="translate(357,168)"/>
<path d="M0 0 C5.19209404 -0.21192221 9.126739 0.4087311 14 2 C14 2.66 14 3.32 14 4 C13.319375 3.835 12.63875 3.67 11.9375 3.5 C8.89075563 2.89687332 8.89075563 2.89687332 5.3125 3 C2 3 2 3 0 2 C0 1.34 0 0.68 0 0 Z " fill="#ED2247" transform="translate(336,63)"/>
<path d="M0 0 C8.415 2.475 8.415 2.475 17 5 C17 5.33 17 5.66 17 6 C10.09647445 6.51137226 5.25172386 4.86964374 -1 2 C-0.67 1.34 -0.34 0.68 0 0 Z " fill="#ED244A" transform="translate(201,342)"/>
<path d="M0 0 C0.33 1.32 0.66 2.64 1 4 C0.01 4.66 -0.98 5.32 -2 6 C-2.66 6.66 -3.32 7.32 -4 8 C-6.625 8.125 -6.625 8.125 -9 8 C-9 7.34 -9 6.68 -9 6 C-7.03125 4.4921875 -7.03125 4.4921875 -4.5 2.875 C-3.6646875 2.33617187 -2.829375 1.79734375 -1.96875 1.2421875 C-1.3190625 0.83226562 -0.669375 0.42234375 0 0 Z " fill="#E1E1DF" transform="translate(547,288)"/>
<path d="M0 0 C0.66 0.33 1.32 0.66 2 1 C0.56760415 2.79574993 -0.8711004 4.58646907 -2.3125 6.375 C-3.51326172 7.87160156 -3.51326172 7.87160156 -4.73828125 9.3984375 C-7 12 -7 12 -10 14 C-9.75 12.125 -9.75 12.125 -9 10 C-8.360625 9.690625 -7.72125 9.38125 -7.0625 9.0625 C-4.23120365 7.60395339 -4.06949705 5.92329192 -3 3 C-1.375 1.1875 -1.375 1.1875 0 0 Z " fill="#EE2B4E" transform="translate(562,270)"/>
<path d="M0 0 C1.2065625 0.0309375 1.2065625 0.0309375 2.4375 0.0625 C2.4375 0.7225 2.4375 1.3825 2.4375 2.0625 C3.7575 2.3925 5.0775 2.7225 6.4375 3.0625 C2.4775 5.0425 2.4775 5.0425 -1.5625 7.0625 C-1.5625 5.4125 -1.5625 3.7625 -1.5625 2.0625 C-2.2225 1.7325 -2.8825 1.4025 -3.5625 1.0625 C-2.5625 0.0625 -2.5625 0.0625 0 0 Z " fill="#F11546" transform="translate(473.5625,187.9375)"/>
<path d="M0 0 C0.99 0.33 1.98 0.66 3 1 C1.90033225 2.29549899 0.79508199 3.58626071 -0.3125 4.875 C-0.92738281 5.59429687 -1.54226563 6.31359375 -2.17578125 7.0546875 C-4 9 -4 9 -7 11 C-7 10.01 -7 9.02 -7 8 C-6.34 8 -5.68 8 -5 8 C-4.9175 7.236875 -4.835 6.47375 -4.75 5.6875 C-4 3 -4 3 -2.125 1.125 C-1.42375 0.75375 -0.7225 0.3825 0 0 Z " fill="#F1F7F3" transform="translate(379,156)"/>
<path d="M0 0 C4.41510774 0.48713098 6.30446645 1.85053197 9.3125 5.0625 C10.00988281 5.79597656 10.70726562 6.52945313 11.42578125 7.28515625 C11.94527344 7.85105469 12.46476562 8.41695312 13 9 C12.34 9.66 11.68 10.32 11 11 C7.33333333 7.33333333 3.66666667 3.66666667 0 0 Z " fill="#EB294F" transform="translate(370,88)"/>
<path d="M0 0 C0.66 0.99 1.32 1.98 2 3 C0.92456217 3.98783194 -0.16073217 4.96493943 -1.25 5.9375 C-2.15492188 6.75541016 -2.15492188 6.75541016 -3.078125 7.58984375 C-5.08467305 9.06212799 -6.57002449 9.57529189 -9 10 C-8.06409496 8.8944811 -7.12620142 7.79064547 -6.1875 6.6875 C-5.66542969 6.07261719 -5.14335937 5.45773438 -4.60546875 4.82421875 C-3.12827531 3.14575321 -1.59960869 1.56117966 0 0 Z " fill="#EC1F4A" transform="translate(268,84)"/>
<path d="M0 0 C1.58409994 0.11487748 3.16728963 0.24234508 4.75 0.375 C6.07257813 0.47941406 6.07257813 0.47941406 7.421875 0.5859375 C9.99066382 0.99850055 11.75841015 1.71160957 14 3 C9.02936879 3.91297308 4.97063121 3.91297308 0 3 C0 2.01 0 1.02 0 0 Z " fill="#EDEBEB" transform="translate(336,77)"/>
<path d="M0 0 C5.28 1.65 10.56 3.3 16 5 C16 5.33 16 5.66 16 6 C12.7 6 9.4 6 6 6 C5.67 5.34 5.34 4.68 5 4 C3.35636866 3.27840576 1.68949614 2.60648579 0 2 C0 1.34 0 0.68 0 0 Z " fill="#EC274A" transform="translate(178,334)"/>
<path d="M0 0 C-1.96284503 2.65561386 -3.14020111 3.03313844 -6.4375 3.8125 C-10.01923487 4.00101236 -11.02789053 3.69181616 -14 2 C-12.42085985 1.46658816 -10.83645613 0.94874237 -9.25 0.4375 C-8.36828125 0.14746094 -7.4865625 -0.14257812 -6.578125 -0.44140625 C-3.92165684 -1.01697435 -2.52968894 -0.89248371 0 0 Z " fill="#DECECD" transform="translate(484,317)"/>
<path d="M0 0 C2 2 2 2 2.1953125 4.3828125 C2.17210937 5.28773438 2.14890625 6.19265625 2.125 7.125 C2.10695312 8.03507813 2.08890625 8.94515625 2.0703125 9.8828125 C2.03550781 10.93082031 2.03550781 10.93082031 2 12 C1.01 12 0.02 12 -1 12 C-1.14285714 3.42857143 -1.14285714 3.42857143 0 0 Z " fill="#F1315A" transform="translate(49,196)"/>
<path d="M0 0 C0.33 0 0.66 0 1 0 C1.125 3.375 1.125 3.375 1 7 C0.34 7.66 -0.32 8.32 -1 9 C-2.32 9 -3.64 9 -5 9 C-3.75471468 5.55151758 -2.38532951 2.80016942 0 0 Z " fill="#E3DEE0" transform="translate(369,161)"/>
<path d="M0 0 C2.64 0 5.28 0 8 0 C8 0.66 8 1.32 8 2 C9.98 2 11.96 2 14 2 C14 2.66 14 3.32 14 4 C14.99 4.33 15.98 4.66 17 5 C15 6 15 6 11.5234375 5.00390625 C10.13802064 4.53099953 8.75528453 4.05018356 7.375 3.5625 C6.31539062 3.19801758 6.31539062 3.19801758 5.234375 2.82617188 C3.48726713 2.22412795 1.74332214 1.61291983 0 1 C0 0.67 0 0.34 0 0 Z " fill="#F0D7DA" transform="translate(174,120)"/>
<path d="M0 0 C6.78082192 5.42465753 6.78082192 5.42465753 9 9 C9 9.66 9 10.32 9 11 C6.53955077 10.61095461 5.27840279 10.28572918 3.515625 8.4765625 C3.09796875 7.86554688 2.6803125 7.25453125 2.25 6.625 C1.82203125 6.01914063 1.3940625 5.41328125 0.953125 4.7890625 C0 3 0 3 0 0 Z " fill="#EE2448" transform="translate(384,85)"/>
<path d="M0 0 C0.66 1.32 1.32 2.64 2 4 C2.66 4 3.32 4 4 4 C3.34 7.3 2.68 10.6 2 14 C1.67 14 1.34 14 1 14 C1 12.02 1 10.04 1 8 C0.34 8 -0.32 8 -1 8 C-0.67 5.36 -0.34 2.72 0 0 Z " fill="#E43D57" transform="translate(329,386)"/>
<path d="M0 0 C4.75481646 0.57634139 7.97048212 2.55068521 12 5 C12 5.33 12 5.66 12 6 C6.25 6.125 6.25 6.125 4 5 C4 4.01 4 3.02 4 2 C2.68 2 1.36 2 0 2 C0 1.34 0 0.68 0 0 Z " fill="#EEE5E5" transform="translate(306,386)"/>
<path d="M0 0 C5.52677733 -0.19392201 9.75614911 0.2520497 15 2 C15 2.66 15 3.32 15 4 C9.86496656 3.35812082 5.0056546 2.31727753 0 1 C0 0.67 0 0.34 0 0 Z " fill="#F4254C" transform="translate(274,374)"/>
<path d="M0 0 C2.1385485 2.1385485 2.42655063 3.13275314 3 6 C-1.75 10 -1.75 10 -4 10 C-2.8905928 6.51329166 -1.73662334 3.22515763 0 0 Z " fill="#E1D4D3" transform="translate(346,358)"/>
<path d="M0 0 C2.47186455 2.96346786 3.66248361 5.54041689 4.6875 9.25 C4.93886719 10.14203125 5.19023437 11.0340625 5.44921875 11.953125 C5.72185547 12.96632812 5.72185547 12.96632812 6 14 C2.15061133 10.40723724 0.08126367 8.11285533 -0.125 2.75 C-0.08375 1.8425 -0.0425 0.935 0 0 Z " fill="#E9385F" transform="translate(456,171)"/>
<path d="M0 0 C0.66 1.32 1.32 2.64 2 4 C1.38125 4.226875 0.7625 4.45375 0.125 4.6875 C-2.61410209 6.37929835 -3.05024472 7.99244161 -4 11 C-4.99 10.34 -5.98 9.68 -7 9 C-4.69 6.03 -2.38 3.06 0 0 Z " fill="#E5DBDE" transform="translate(361,336)"/>
<path d="M0 0 C2.86867231 1.38264837 5.56024032 2.92148553 8.25 4.625 C8.95640625 5.07101562 9.6628125 5.51703125 10.390625 5.9765625 C10.92171875 6.31429688 11.4528125 6.65203125 12 7 C11.67 7.66 11.34 8.32 11 9 C7.03935893 7.25731793 3.25563451 4.85325271 0 2 C0 1.34 0 0.68 0 0 Z " fill="#ED274D" transform="translate(108,300)"/>
<path d="M0 0 C0.66 0.66 1.32 1.32 2 2 C1.04454634 3.46022163 0.08553322 4.91811468 -0.875 6.375 C-1.40867187 7.18710938 -1.94234375 7.99921875 -2.4921875 8.8359375 C-4 11 -4 11 -6 13 C-5.67 10.36 -5.34 7.72 -5 5 C-4.34 5 -3.68 5 -3 5 C-3 4.34 -3 3.68 -3 3 C-2.34 3 -1.68 3 -1 3 C-0.67 2.01 -0.34 1.02 0 0 Z " fill="#EF2248" transform="translate(81,167)"/>
<path d="M0 0 C0.66 0.33 1.32 0.66 2 1 C1.67 1.99 1.34 2.98 1 4 C0.01 4.33 -0.98 4.66 -2 5 C-3.01187895 6.65948148 -4.0126546 8.32580562 -5 10 C-5.66 10 -6.32 10 -7 10 C-5.76075855 5.04303419 -4.21422242 2.88341534 0 0 Z " fill="#EAECEE" transform="translate(347,364)"/>
<path d="M0 0 C5.94 1.485 5.94 1.485 12 3 C7.81924919 5.0903754 7.41186737 5.22667078 3.25 4.125 C2.45078125 3.92132813 1.6515625 3.71765625 0.828125 3.5078125 C-0.07679688 3.25644531 -0.07679688 3.25644531 -1 3 C-0.67 2.01 -0.34 1.02 0 0 Z " fill="#EE2949" transform="translate(238,354)"/>
<path d="M0 0 C0.66 0 1.32 0 2 0 C2 0.66 2 1.32 2 2 C2.66 2 3.32 2 4 2 C5.125 6.75 5.125 6.75 4 9 C3.34 9 2.68 9 2 9 C0.50178941 5.62902617 0 3.79557881 0 0 Z " fill="#EBF0E8" transform="translate(396,312)"/>
<path d="M0 0 C-0.99 0.495 -0.99 0.495 -2 1 C-2 1.66 -2 2.32 -2 3 C-5.3 3 -8.6 3 -12 3 C-8.61613364 -0.38386636 -4.56431325 -1.75550509 0 0 Z " fill="#EF3254" transform="translate(484,309)"/>
<path d="M0 0 C0.33 0.66 0.66 1.32 1 2 C1.66 2 2.32 2 3 2 C2.67 3.65 2.34 5.3 2 7 C-1 8 -1 8 -3.1875 7.0625 C-3.785625 6.711875 -4.38375 6.36125 -5 6 C-4.01 5.67 -3.02 5.34 -2 5 C-0.78130071 2.49552484 -0.78130071 2.49552484 0 0 Z " fill="#E2D5D7" transform="translate(363,170)"/>
<path d="M0 0 C0.66 0 1.32 0 2 0 C2.66 0.66 3.32 1.32 4 2 C4.66 2 5.32 2 6 2 C6 2.66 6 3.32 6 4 C7.32 4 8.64 4 10 4 C9.34 5.32 8.68 6.64 8 8 C5.03 6.02 2.06 4.04 -1 2 C-0.67 1.34 -0.34 0.68 0 0 Z " fill="#ECE3E3" transform="translate(430,142)"/>
<path d="M0 0 C1.13583456 3.71727674 0.66670026 5.47051709 -1 9 C-1.66 9 -2.32 9 -3 9 C-3.33 9.66 -3.66 10.32 -4 11 C-4.65234375 9.234375 -4.65234375 9.234375 -5 7 C-4.00390625 5.078125 -4.00390625 5.078125 -2.5625 3.25 C-2.08941406 2.63640625 -1.61632812 2.0228125 -1.12890625 1.390625 C-0.75636719 0.93171875 -0.38382812 0.4728125 0 0 Z " fill="#E3D9D9" transform="translate(353,347)"/>
<path d="M0 0 C0.33 0.99 0.66 1.98 1 3 C-0.3125 4.5 -0.3125 4.5 -2 6 C-2.99 6 -3.98 6 -5 6 C-5.66 7.32 -6.32 8.64 -7 10 C-7.33 9.34 -7.66 8.68 -8 8 C-7.34 7.01 -6.68 6.02 -6 5 C-5.34 5 -4.68 5 -4 5 C-4 4.01 -4 3.02 -4 2 C-2.68 1.34 -1.36 0.68 0 0 Z " fill="#FC0835" transform="translate(367,316)"/>
<path d="M0 0 C0.66 0 1.32 0 2 0 C2.433125 1.2065625 2.433125 1.2065625 2.875 2.4375 C3.73262568 5.1326468 3.73262568 5.1326468 6 6 C6.625 9.0625 6.625 9.0625 7 12 C4.04485124 9.24865461 1.8475191 6.60266225 0 3 C0 2.01 0 1.02 0 0 Z " fill="#ED2950" transform="translate(61,270)"/>
<path d="M0 0 C0.66 0 1.32 0 2 0 C2.25 2.8125 2.25 2.8125 2 6 C0 7.875 0 7.875 -2 9 C-2 6.69 -2 4.38 -2 2 C-1.34 2 -0.68 2 0 2 C0 1.34 0 0.68 0 0 Z " fill="#F0F1F0" transform="translate(574,256)"/>
<path d="M0 0 C2.51699845 2.51699845 3.10964078 4.57554146 4 8 C3.625 10.375 3.625 10.375 3 12 C2.34 12 1.68 12 1 12 C0.01751476 7.9472484 -0.08159574 4.16138263 0 0 Z " fill="#EE335A" transform="translate(570,208)"/>
<path d="M0 0 C-1.06541016 0.41572266 -1.06541016 0.41572266 -2.15234375 0.83984375 C-3.53099609 1.38318359 -3.53099609 1.38318359 -4.9375 1.9375 C-5.85402344 2.29714844 -6.77054687 2.65679687 -7.71484375 3.02734375 C-9.92418533 3.7996218 -9.92418533 3.7996218 -11 5 C-12.66617115 5.04063832 -14.33388095 5.042721 -16 5 C-11.53321948 1.09156705 -5.86504904 -1.93756084 0 0 Z " fill="#E1BCC1" transform="translate(396,147)"/>
<path d="M0 0 C1.2077558 3.62326739 0.54311128 4.64146369 -1 8 C-1.99 8 -2.98 8 -4 8 C-4.33 5.69 -4.66 3.38 -5 1 C-4.01 1.33 -3.02 1.66 -2 2 C-1.34 1.34 -0.68 0.68 0 0 Z " fill="#EA244C" transform="translate(336,378)"/>
<path d="M0 0 C0.66 0.33 1.32 0.66 2 1 C0.35 2.98 -1.3 4.96 -3 7 C-4.65 6.67 -6.3 6.34 -8 6 C-5.38485683 3.87961365 -2.80362384 1.86908256 0 0 Z " fill="#E9DBDA" transform="translate(416,334)"/>
<path d="M0 0 C-2.42130331 2.42130331 -3.80111377 2.52840504 -7.125 3.125 C-8.03507812 3.29257812 -8.94515625 3.46015625 -9.8828125 3.6328125 C-10.58148438 3.75398438 -11.28015625 3.87515625 -12 4 C-12 3.34 -12 2.68 -12 2 C-10.75579353 1.4654744 -9.50429064 0.94791389 -8.25 0.4375 C-7.55390625 0.14746094 -6.8578125 -0.14257812 -6.140625 -0.44140625 C-3.69987216 -1.07831803 -2.3596345 -0.80248831 0 0 Z " fill="#F02446" transform="translate(494,312)"/>
<path d="M0 0 C0.66 0 1.32 0 2 0 C3.5078125 1.75 3.5078125 1.75 5.125 4 C5.66382812 4.7425 6.20265625 5.485 6.7578125 6.25 C7.16773437 6.8275 7.57765625 7.405 8 8 C6.68 8 5.36 8 4 8 C4 7.34 4 6.68 4 6 C3.34 6 2.68 6 2 6 C2 5.34 2 4.68 2 4 C1.34 4 0.68 4 0 4 C0 2.68 0 1.36 0 0 Z " fill="#F5F2F2" transform="translate(74,292)"/>
<path d="M0 0 C0.99 0.33 1.98 0.66 3 1 C2.09972412 2.03531726 1.17906965 3.05294165 0.25 4.0625 C-0.51570313 4.91521484 -0.51570313 4.91521484 -1.296875 5.78515625 C-3 7 -3 7 -5.203125 6.68359375 C-5.79609375 6.45800781 -6.3890625 6.23242188 -7 6 C-5.62209707 3.24419414 -3.62850007 2.51138754 -1 1 C-0.67 0.67 -0.34 0.34 0 0 Z " fill="#E93658" transform="translate(465,198)"/>
<path d="M0 0 C-0.66 1.32 -1.32 2.64 -2 4 C-3.32 4 -4.64 4 -6 4 C-6 4.66 -6 5.32 -6 6 C-7.32 6 -8.64 6 -10 6 C-10 5.34 -10 4.68 -10 4 C-8.71086513 3.32845067 -7.41859796 2.66291141 -6.125 2 C-5.40570313 1.62875 -4.68640625 1.2575 -3.9453125 0.875 C-2 0 -2 0 0 0 Z " fill="#DEE2DC" transform="translate(118,142)"/>
<path d="M0 0 C-1.4638611 4.39158329 -3.97831338 4.87947433 -8 7 C-8.66 6.34 -9.32 5.68 -10 5 C-8.71186658 4.16121545 -7.41936744 3.32913217 -6.125 2.5 C-5.40570313 2.0359375 -4.68640625 1.571875 -3.9453125 1.09375 C-2 0 -2 0 0 0 Z " fill="#F02B4E" transform="translate(285,74)"/>
<path d="M0 0 C4.875 1.75 4.875 1.75 6 4 C5.01 4.33 4.02 4.66 3 5 C2.67 5.66 2.34 6.32 2 7 C0.68 6.01 -0.64 5.02 -2 4 C-1.34 2.68 -0.68 1.36 0 0 Z " fill="#ED2E52" transform="translate(315,384)"/>
<path d="M0 0 C4.3890815 0.51035831 7.33708062 1.52214277 11 4 C7.59068103 5.13643966 6.99664544 4.86747764 3.8125 3.5625 C3.09707031 3.27503906 2.38164062 2.98757813 1.64453125 2.69140625 C1.10183594 2.46324219 0.55914062 2.23507812 0 2 C0 1.34 0 0.68 0 0 Z " fill="#F32648" transform="translate(262,362)"/>
<path d="M0 0 C5.445 1.485 5.445 1.485 11 3 C11 3.66 11 4.32 11 5 C7.37 4.34 3.74 3.68 0 3 C0 2.01 0 1.02 0 0 Z " fill="#EF254C" transform="translate(219,348)"/>
<path d="M0 0 C1.32 0.66 2.64 1.32 4 2 C4 2.66 4 3.32 4 4 C6.475 4.99 6.475 4.99 9 6 C9 6.99 9 7.98 9 9 C5.7 6.69 2.4 4.38 -1 2 C-0.67 1.34 -0.34 0.68 0 0 Z " fill="#EB264D" transform="translate(96,309)"/>
<path d="M0 0 C-1.485 2.475 -1.485 2.475 -3 5 C-3.99 4.67 -4.98 4.34 -6 4 C-6 3.34 -6 2.68 -6 2 C-6.66 1.67 -7.32 1.34 -8 1 C-4.93251126 -0.86240388 -3.40254489 -1.2151946 0 0 Z " fill="#EDD8D9" transform="translate(524,304)"/>
<path d="M0 0 C0.33 0.66 0.66 1.32 1 2 C1.66 2 2.32 2 3 2 C2.25 4.9375 2.25 4.9375 1 8 C-0.32 8.33 -1.64 8.66 -3 9 C-2.01 6.03 -1.02 3.06 0 0 Z " fill="#F3214A" transform="translate(59,168)"/>
<path d="M0 0 C3.37503669 1.1858237 5.64722731 2.27573689 8 5 C7.34 5 6.68 5 6 5 C6 5.66 6 6.32 6 7 C5.34 7 4.68 7 4 7 C4 6.34 4 5.68 4 5 C3.34 5 2.68 5 2 5 C2 4.34 2 3.68 2 3 C1.34 3 0.68 3 0 3 C0 2.01 0 1.02 0 0 Z " fill="#F3E5E4" transform="translate(424,151)"/>
<path d="M0 0 C5.26053037 -0.31563182 8.44573816 0.33409063 13 3 C12.01 3.66 11.02 4.32 10 5 C7.51953125 4.3203125 7.51953125 4.3203125 4.8125 3.125 C3.91144531 2.73570312 3.01039063 2.34640625 2.08203125 1.9453125 C1.39496094 1.63335937 0.70789063 1.32140625 0 1 C0 0.67 0 0.34 0 0 Z " fill="#F03556" transform="translate(182,139)"/>
<path d="M0 0 C3.63 0 7.26 0 11 0 C10.67 0.99 10.34 1.98 10 3 C6.7 2.67 3.4 2.34 0 2 C0 1.34 0 0.68 0 0 Z " fill="#E7F2F0" transform="translate(168,138)"/>
<path d="M0 0 C-3.00950123 1.61725534 -5.97103608 2.67582623 -9.25 3.625 C-10.58804687 4.01558594 -10.58804687 4.01558594 -11.953125 4.4140625 C-12.62859375 4.60742188 -13.3040625 4.80078125 -14 5 C-14 4.34 -14 3.68 -14 3 C-9.03006806 0.56574762 -5.65394631 -0.34615998 0 0 Z " fill="#E8274B" transform="translate(310,78)"/>
<path d="M0 0 C4.95 0.99 4.95 0.99 10 2 C9.67 2.66 9.34 3.32 9 4 C6.69 4 4.38 4 2 4 C2 3.34 2 2.68 2 2 C1.34 2 0.68 2 0 2 C0 1.34 0 0.68 0 0 Z " fill="#EAF0E8" transform="translate(256,370)"/>
<path d="M0 0 C5.445 1.485 5.445 1.485 11 3 C11 3.33 11 3.66 11 4 C2.42857143 4.28571429 2.42857143 4.28571429 -1 2 C-0.67 1.34 -0.34 0.68 0 0 Z " fill="#ED284C" transform="translate(251,358)"/>
<path d="M0 0 C5 7.5 5 7.5 5 11 C4.34 11 3.68 11 3 11 C-1.06153846 4.6 -1.06153846 4.6 -0.75 1.5625 C-0.5025 1.046875 -0.255 0.53125 0 0 Z " fill="#EC2B53" transform="translate(74,257)"/>
<path d="M0 0 C3.63 0 7.26 0 11 0 C11 0.66 11 1.32 11 2 C6.545 2.495 6.545 2.495 2 3 C1.34 2.01 0.68 1.02 0 0 Z " fill="#E2F3F2" transform="translate(517,184)"/>
<path d="M0 0 C0.66 0.99 1.32 1.98 2 3 C0.625 6.6875 0.625 6.6875 -1 10 C-1.99 10 -2.98 10 -4 10 C-2.8905928 6.51329166 -1.73662334 3.22515763 0 0 Z " fill="#F13255" transform="translate(240,120)"/>
<path d="M0 0 C3.3 0.99 6.6 1.98 10 3 C9.34 3.66 8.68 4.32 8 5 C5.0371669 4.60495559 2.61673759 3.40182371 0 2 C0 1.34 0 0.68 0 0 Z " fill="#F22548" transform="translate(166,330)"/>
<path d="M0 0 C2.29013653 3.4352048 2.17842973 4.985331 2 9 C1.01 9 0.02 9 -1 9 C-1.33 7.68 -1.66 6.36 -2 5 C-1.34 5 -0.68 5 0 5 C0 3.35 0 1.7 0 0 Z " fill="#EC2D4D" transform="translate(398,321)"/>
<path d="M0 0 C3.875 1.875 3.875 1.875 5 3 C5.04080783 4.99958364 5.04254356 7.00045254 5 9 C4.01 9.495 4.01 9.495 3 10 C2.690625 8.906875 2.38125 7.81375 2.0625 6.6875 C1.41662103 4.44592006 0.7376883 2.2130649 0 0 Z " fill="#F4244F" transform="translate(371,314)"/>
<path d="M0 0 C-0.33 0.99 -0.66 1.98 -1 3 C-4.375 3.625 -4.375 3.625 -8 4 C-8.66 3.34 -9.32 2.68 -10 2 C-6.49223216 0.39644899 -3.85645121 -0.22036864 0 0 Z " fill="#EA2C4C" transform="translate(463,315)"/>
<path d="M0 0 C0.99 0 1.98 0 3 0 C3.66 2.97 4.32 5.94 5 9 C4.01 9.495 4.01 9.495 3 10 C2.01 6.7 1.02 3.4 0 0 Z " fill="#F32049" transform="translate(52,250)"/>
<path d="M0 0 C0.66 0 1.32 0 2 0 C2 1.32 2 2.64 2 4 C2.66 4 3.32 4 4 4 C4 5.98 4 7.96 4 10 C3.01 10.495 3.01 10.495 2 11 C1.34 7.37 0.68 3.74 0 0 Z " fill="#E5EEEA" transform="translate(572,210)"/>
<path d="M0 0 C1.32 0.33 2.64 0.66 4 1 C0.04 4.465 0.04 4.465 -4 8 C-4.33 7.01 -4.66 6.02 -5 5 C-2.75 2.4375 -2.75 2.4375 0 0 Z " fill="#ED3053" transform="translate(375,152)"/>
<path d="M0 0 C0.66 0.66 1.32 1.32 2 2 C0.35 3.65 -1.3 5.3 -3 7 C-3.99 6.67 -4.98 6.34 -6 6 C-4.75453595 2.26360784 -3.36595047 1.81243487 0 0 Z " fill="#E3EDED" transform="translate(275,99)"/>
<path d="M0 0 C2.97 0.33 5.94 0.66 9 1 C6 3 6 3 3 4 C2.01 3.67 1.02 3.34 0 3 C0 2.01 0 1.02 0 0 Z " fill="#ECDDE0" transform="translate(204,357)"/>
<path d="M0 0 C6.625 -0.125 6.625 -0.125 10 1 C10 1.99 10 2.98 10 4 C6.7 3.01 3.4 2.02 0 1 C0 0.67 0 0.34 0 0 Z " fill="#E44767" transform="translate(158,342)"/>
<path d="M0 0 C0 0.66 0 1.32 0 2 C0.66 2 1.32 2 2 2 C2 2.66 2 3.32 2 4 C-0.97 4 -3.94 4 -7 4 C-7.33 3.34 -7.66 2.68 -8 2 C-2.25 0 -2.25 0 0 0 Z " fill="#F7224F" transform="translate(470,312)"/>
<path d="M0 0 C2.45234885 0.98093954 3.7809268 1.68703828 5.3125 3.875 C6.12082372 6.37345514 5.71847013 7.52928976 5 10 C4.16121545 8.71186658 3.32913217 7.41936744 2.5 6.125 C2.0359375 5.40570313 1.571875 4.68640625 1.09375 3.9453125 C0 2 0 2 0 0 Z " fill="#F22748" transform="translate(448,172)"/>
<path d="M0 0 C3.63 0.33 7.26 0.66 11 1 C10.34 1.66 9.68 2.32 9 3 C6.8359375 2.9765625 6.8359375 2.9765625 4.375 2.625 C3.55773437 2.51414063 2.74046875 2.40328125 1.8984375 2.2890625 C1.27195312 2.19367188 0.64546875 2.09828125 0 2 C0 1.34 0 0.68 0 0 Z " fill="#F32242" transform="translate(520,172)"/>
<path d="M0 0 C1.9375 0.6875 1.9375 0.6875 4 2 C4.75 4.625 4.75 4.625 5 7 C3.68 6.67 2.36 6.34 1 6 C0.67 4.02 0.34 2.04 0 0 Z " fill="#FD033A" transform="translate(452,172)"/>
<path d="M0 0 C1.11375 0.1546875 1.11375 0.1546875 2.25 0.3125 C-0.58430453 3.5667015 -2.43607774 4.8331753 -6.75 5.3125 C-3.42692308 0.38942308 -3.42692308 0.38942308 0 0 Z " fill="#DDEAE7" transform="translate(376.75,155.6875)"/>
<path d="M0 0 C3.81684226 1.55500981 6.19195732 4.03595495 9 7 C4.71193127 6.52354792 2.73352513 5.34097516 0 2 C0 1.34 0 0.68 0 0 Z " fill="#EE2A53" transform="translate(222,148)"/>
<path d="M0 0 C3.52269485 -0.4025937 4.79940808 -0.13372795 7.8125 1.875 C8.534375 2.57625 9.25625 3.2775 10 4 C10 4.66 10 5.32 10 6 C6.66666667 4.33333333 3.33333333 2.66666667 0 1 C0 0.67 0 0.34 0 0 Z " fill="#EF274B" transform="translate(198,146)"/>
<path d="M0 0 C2.99693138 0.99897713 4.02709413 1.65130253 6 4 C6 4.66 6 5.32 6 6 C5.34 6 4.68 6 4 6 C3.67 6.66 3.34 7.32 3 8 C0 2.25 0 2.25 0 0 Z " fill="#F1294C" transform="translate(394,118)"/>
<path d="M0 0 C-0.33 0.66 -0.66 1.32 -1 2 C-8.42857143 2.28571429 -8.42857143 2.28571429 -12 0 C-3.42857143 -1.28571429 -3.42857143 -1.28571429 0 0 Z " fill="#E73A5A" transform="translate(140,119)"/>
<path d="M0 0 C2.64 0 5.28 0 8 0 C8.66 1.32 9.32 2.64 10 4 C6.7 3.01 3.4 2.02 0 1 C0 0.67 0 0.34 0 0 Z " fill="#F2E4E4" transform="translate(282,368)"/>
<path d="M0 0 C-3.3 1.32 -6.6 2.64 -10 4 C-10.66 3.34 -11.32 2.68 -12 2 C-10.75579353 1.4654744 -9.50429064 0.94791389 -8.25 0.4375 C-7.55390625 0.14746094 -6.8578125 -0.14257812 -6.140625 -0.44140625 C-4 -1 -4 -1 0 0 Z " fill="#E8D0DA" transform="translate(432,331)"/>
<path d="M0 0 C1.32 0 2.64 0 4 0 C4 0.99 4 1.98 4 3 C1 5 1 5 -2 5 C-1.34 3.35 -0.68 1.7 0 0 Z " fill="#E3F0EF" transform="translate(524,302)"/>
<path d="M0 0 C2.0625 0.4375 2.0625 0.4375 4 1 C3.01 1 2.02 1 1 1 C1 1.66 1 2.32 1 3 C0.34 3 -0.32 3 -1 3 C-1 3.66 -1 4.32 -1 5 C-0.01 5.33 0.98 5.66 2 6 C1.67 6.99 1.34 7.98 1 9 C-0.5625 7.8125 -0.5625 7.8125 -2 6 C-1.57894737 1.57894737 -1.57894737 1.57894737 0 0 Z " fill="#E3405E" transform="translate(376,291)"/>
<path d="M0 0 C-1.33333333 0.66666667 -2.66666667 1.33333333 -4 2 C-4.680625 2.37125 -5.36125 2.7425 -6.0625 3.125 C-8 4 -8 4 -11 4 C-11 3.34 -11 2.68 -11 2 C-7.36576791 -0.32590854 -4.22911669 -0.16265833 0 0 Z " fill="#E9284C" transform="translate(498,182)"/>
<path d="M0 0 C0.66 0.33 1.32 0.66 2 1 C1.67 3.64 1.34 6.28 1 9 C0.34 9 -0.32 9 -1 9 C-1.09765625 2.84765625 -1.09765625 2.84765625 -1 1 C-0.67 0.67 -0.34 0.34 0 0 Z " fill="#E62C51" transform="translate(232,145)"/>
<path d="M0 0 C0.66 0 1.32 0 2 0 C2 1.65 2 3.3 2 5 C1.01 5.33 0.02 5.66 -1 6 C-1.33 6.66 -1.66 7.32 -2 8 C-1.125 2.25 -1.125 2.25 0 0 Z " fill="#E1DBD5" transform="translate(334,388)"/>
<path d="M0 0 C3.3 0.33 6.6 0.66 10 1 C6.77208445 3.1519437 5.71599191 3.20086443 2 3 C2 2.34 2 1.68 2 1 C1.34 0.67 0.68 0.34 0 0 Z " fill="#E8DFDC" transform="translate(226,363)"/>
<path d="M0 0 C0.66 0 1.32 0 2 0 C0.66666667 3.33333333 -0.66666667 6.66666667 -2 10 C-2.66 8.68 -3.32 7.36 -4 6 C-2.7260411 3.96166576 -1.38938077 1.96147874 0 0 Z " fill="#F62B52" transform="translate(350,348)"/>
<path d="M0 0 C2.97 0.33 5.94 0.66 9 1 C9 1.99 9 2.98 9 4 C6.03 3.01 3.06 2.02 0 1 C0 0.67 0 0.34 0 0 Z " fill="#ED3154" transform="translate(132,332)"/>
<path d="M0 0 C2.64 0 5.28 0 8 0 C8 0.66 8 1.32 8 2 C8.66 2 9.32 2 10 2 C10 2.66 10 3.32 10 4 C6.7 3.01 3.4 2.02 0 1 C0 0.67 0 0.34 0 0 Z " fill="#EED7D9" transform="translate(162,328)"/>
<path d="M0 0 C2.125 0.9375 2.125 0.9375 4 2 C3.67 2.99 3.34 3.98 3 5 C0.525 4.01 0.525 4.01 -2 3 C-2 2.34 -2 1.68 -2 1 C-1.34 0.67 -0.68 0.34 0 0 Z " fill="#FD0640" transform="translate(377,293)"/>
<path d="M0 0 C2.61527381 2.36620011 4.26440562 4.942048 6 8 C4.68 8 3.36 8 2 8 C2 7.01 2 6.02 2 5 C1.34 5 0.68 5 0 5 C0 3.35 0 1.7 0 0 Z " fill="#EDE3E3" transform="translate(62,275)"/>
<path d="M0 0 C0.33 0.99 0.66 1.98 1 3 C-1.31 4.32 -3.62 5.64 -6 7 C-6 4 -6 4 -4.125 1.8125 C-2 0 -2 0 0 0 Z " fill="#F90435" transform="translate(472,190)"/>
<path d="M0 0 C5.75 3.625 5.75 3.625 8 7 C5 7 5 7 2.3125 4.625 C0 2 0 2 0 0 Z " fill="#F2314F" transform="translate(552,184)"/>
<path d="M0 0 C0.33 0.66 0.66 1.32 1 2 C2.32 1.34 3.64 0.68 5 0 C4.43628586 3.26954202 3.50037734 4.82575883 1 7 C0.67 4.69 0.34 2.38 0 0 Z " fill="#F0F3F3" transform="translate(241,160)"/>
<path d="M0 0 C2.31 1.98 4.62 3.96 7 6 C6.01 6.33 5.02 6.66 4 7 C2.35 5.02 0.7 3.04 -1 1 C-0.67 0.67 -0.34 0.34 0 0 Z " fill="#EE284D" transform="translate(443,154)"/>
<path d="M0 0 C0.66 0.33 1.32 0.66 2 1 C1.19152271 2.16945792 0.37810888 3.33550461 -0.4375 4.5 C-0.88996094 5.1496875 -1.34242188 5.799375 -1.80859375 6.46875 C-2.20175781 6.9740625 -2.59492188 7.479375 -3 8 C-3.33 8 -3.66 8 -4 8 C-4 6.02 -4 4.04 -4 2 C-2.125 0.9375 -2.125 0.9375 0 0 Z " fill="#EE2345" transform="translate(262,108)"/>
<path d="M0 0 C-1.28813342 0.83878455 -2.58063256 1.67086783 -3.875 2.5 C-4.59429687 2.9640625 -5.31359375 3.428125 -6.0546875 3.90625 C-8 5 -8 5 -10 5 C-8.94958421 2.13522966 -8.29875437 1.16086774 -5.5625 -0.3125 C-3 -1 -3 -1 0 0 Z " fill="#F12250" transform="translate(296,84)"/>
<path d="M0 0 C2.1875 0.3125 2.1875 0.3125 4 1 C3.01 1.495 3.01 1.495 2 2 C2 2.66 2 3.32 2 4 C1.34 4 0.68 4 0 4 C0 4.66 0 5.32 0 6 C-0.66 6 -1.32 6 -2 6 C-2.33 5.01 -2.66 4.02 -3 3 C-1.75 1.4375 -1.75 1.4375 0 0 Z " fill="#FA1947" transform="translate(300,66)"/>
<path d="M0 0 C1.2077558 3.62326739 0.54311128 4.64146369 -1 8 C-2.32 8 -3.64 8 -5 8 C-5 7.34 -5 6.68 -5 6 C-4.34 6 -3.68 6 -3 6 C-2.690625 5.195625 -2.38125 4.39125 -2.0625 3.5625 C-1 1 -1 1 0 0 Z " fill="#EED9D8" transform="translate(407,340)"/>
<path d="M0 0 C1.32 0.33 2.64 0.66 4 1 C3.34 2.65 2.68 4.3 2 6 C1.34 6 0.68 6 0 6 C0 4.02 0 2.04 0 0 Z " fill="#F92A4E" transform="translate(402,340)"/>
<path d="M0 0 C2.31 0.66 4.62 1.32 7 2 C7 2.66 7 3.32 7 4 C2.545 3.01 2.545 3.01 -2 2 C-1.34 1.34 -0.68 0.68 0 0 Z " fill="#E63458" transform="translate(143,335)"/>
<path d="M0 0 C0.99 0.33 1.98 0.66 3 1 C0.36 2.98 -2.28 4.96 -5 7 C-4 3 -4 3 -2.125 1.1875 C-1.42375 0.795625 -0.7225 0.40375 0 0 Z " fill="#E72D53" transform="translate(369,326)"/>
<path d="M0 0 C0 0.66 0 1.32 0 2 C-1.32 2.33 -2.64 2.66 -4 3 C-4 3.66 -4 4.32 -4 5 C-5.32 4.67 -6.64 4.34 -8 4 C-7.34 3.67 -6.68 3.34 -6 3 C-6.33 2.34 -6.66 1.68 -7 1 C-2.25 0 -2.25 0 0 0 Z " fill="#E7EEEC" transform="translate(498,313)"/>
<path d="M0 0 C0.99 0 1.98 0 3 0 C3 1.32 3 2.64 3 4 C2.34 4 1.68 4 1 4 C1 4.66 1 5.32 1 6 C0.34 6 -0.32 6 -1 6 C-1.042721 4.33388095 -1.04063832 2.66617115 -1 1 C-0.67 0.67 -0.34 0.34 0 0 Z " fill="#FB0D37" transform="translate(385,300)"/>
<path d="M0 0 C0.66 0.33 1.32 0.66 2 1 C1.34 2.98 0.68 4.96 0 7 C-0.33 6.01 -0.66 5.02 -1 4 C-1.66 3.67 -2.32 3.34 -3 3 C-2.01 2.01 -1.02 1.02 0 0 Z " fill="#E7E5E5" transform="translate(567,267)"/>
<path d="M0 0 C0.99 0 1.98 0 3 0 C3 0.66 3 1.32 3 2 C3.66 2 4.32 2 5 2 C4.67 3.98 4.34 5.96 4 8 C2.22293791 5.33440687 1.12451727 2.9719385 0 0 Z " fill="#F2E4E9" transform="translate(456,170)"/>
<path d="M0 0 C1.32 0 2.64 0 4 0 C3.34 1.65 2.68 3.3 2 5 C0.68 4.67 -0.64 4.34 -2 4 C-2 3.34 -2 2.68 -2 2 C-1.34 2 -0.68 2 0 2 C0 1.34 0 0.68 0 0 Z " fill="#E7F0F1" transform="translate(250,132)"/>
<path d="M0 0 C1.98 0 3.96 0 6 0 C5.67 1.32 5.34 2.64 5 4 C2.525 3.01 2.525 3.01 0 2 C0 1.34 0 0.68 0 0 Z " fill="#EFEFEE" transform="translate(200,130)"/>
<path d="M0 0 C0.33 0.66 0.66 1.32 1 2 C1.66 2.33 2.32 2.66 3 3 C2.0409375 3.680625 2.0409375 3.680625 1.0625 4.375 C-1.09702406 5.83921726 -1.09702406 5.83921726 -2 8 C-2.66 8 -3.32 8 -4 8 C-2.87548273 5.0280615 -1.77706209 2.66559313 0 0 Z " fill="#E4D3D2" transform="translate(259,114)"/>
<path d="M0 0 C1.485 0.99 1.485 0.99 3 2 C2.42655063 4.86724686 2.1385485 5.8614515 0 8 C-0.98120464 4.94736336 -0.98120464 3.05263664 0 0 Z " fill="#E9D5D5" transform="translate(331,396)"/>
<path d="M0 0 C1.65 0 3.3 0 5 0 C5 1.32 5 2.64 5 4 C3.68 4 2.36 4 1 4 C0.67 2.68 0.34 1.36 0 0 Z " fill="#FE1643" transform="translate(317,388)"/>
<path d="M0 0 C5.75 1.75 5.75 1.75 8 4 C5 5 5 5 2.3125 3.6875 C1.549375 3.130625 0.78625 2.57375 0 2 C0 1.34 0 0.68 0 0 Z " fill="#EF2B4D" transform="translate(300,376)"/>
<path d="M0 0 C2.31 0.66 4.62 1.32 7 2 C7 2.66 7 3.32 7 4 C4.03 3.505 4.03 3.505 1 3 C0.67 2.01 0.34 1.02 0 0 Z " fill="#F51A3B" transform="translate(231,352)"/>
<path d="M0 0 C2.97 0 5.94 0 9 0 C9.33 0.99 9.66 1.98 10 3 C3.375 2.25 3.375 2.25 0 0 Z " fill="#F5D2D7" transform="translate(208,344)"/>
<path d="M0 0 C1.65 0.33 3.3 0.66 5 1 C3.75 2.5625 3.75 2.5625 2 4 C-0.1875 3.6875 -0.1875 3.6875 -2 3 C-1.34 2.01 -0.68 1.02 0 0 Z " fill="#F5263B" transform="translate(413,332)"/>
<path d="M0 0 C5.75 1.75 5.75 1.75 8 4 C5.36 3.67 2.72 3.34 0 3 C0 2.01 0 1.02 0 0 Z " fill="#F02250" transform="translate(140,319)"/>
<path d="M0 0 C1.32 0 2.64 0 4 0 C4.33 0.99 4.66 1.98 5 3 C1 3 1 3 -2 2 C-1.34 1.34 -0.68 0.68 0 0 Z " fill="#E5F1ED" transform="translate(484,316)"/>
<path d="M0 0 C-0.5775 0.268125 -1.155 0.53625 -1.75 0.8125 C-4.05747896 1.95053246 -4.05747896 1.95053246 -6.125 3.625 C-8 5 -8 5 -10 5 C-9 2 -9 2 -7.25 0.8125 C-4.70039426 -0.10819096 -2.69076919 -0.14948718 0 0 Z " fill="#F62D55" transform="translate(538,295)"/>
<path d="M0 0 C1.32 0 2.64 0 4 0 C4.33 1.65 4.66 3.3 5 5 C4.01 5 3.02 5 2 5 C1.34 3.35 0.68 1.7 0 0 Z " fill="#F4DFE1" transform="translate(80,268)"/>
<path d="M0 0 C0.66 0.33 1.32 0.66 2 1 C1.67 3.31 1.34 5.62 1 8 C-1 6 -1 6 -1.1875 3.4375 C-1 1 -1 1 0 0 Z " fill="#E5D8DE" transform="translate(71,242)"/>
<path d="M0 0 C6.625 -0.25 6.625 -0.25 10 2 C10 2.66 10 3.32 10 4 C6.7 3.01 3.4 2.02 0 1 C0 0.67 0 0.34 0 0 Z " fill="#E9335B" transform="translate(528,184)"/>
<path d="M0 0 C2.64 0.33 5.28 0.66 8 1 C6.6875 2.5 6.6875 2.5 5 4 C4.01 4 3.02 4 2 4 C2 3.34 2 2.68 2 2 C1.34 2 0.68 2 0 2 C0 1.34 0 0.68 0 0 Z " fill="#E6DEDD" transform="translate(408,146)"/>
<path d="M0 0 C6.75 0.75 6.75 0.75 9 3 C7.68 3.33 6.36 3.66 5 4 C5 3.34 5 2.68 5 2 C3.35 1.67 1.7 1.34 0 1 C0 0.67 0 0.34 0 0 Z " fill="#E6EFED" transform="translate(185,142)"/>
<path d="M0 0 C2.475 0.495 2.475 0.495 5 1 C4.67 2.65 4.34 4.3 4 6 C0 1.125 0 1.125 0 0 Z " fill="#F3EFF1" transform="translate(394,96)"/>
<path d="M0 0 C0.99 0.33 1.98 0.66 3 1 C-0.75 4 -0.75 4 -3 4 C-3 4.66 -3 5.32 -3 6 C-3.66 6 -4.32 6 -5 6 C-3.63016497 2.83884224 -3.0109362 2.0072908 0 0 Z " fill="#F2264D" transform="translate(281,90)"/>
<path d="M0 0 C1.98 0 3.96 0 6 0 C6.33 1.32 6.66 2.64 7 4 C4.97954558 3.39816251 2.97888961 2.72693904 1 2 C0.67 1.34 0.34 0.68 0 0 Z " fill="#EC345C" transform="translate(363,84)"/>
<path d="M0 0 C2.88437779 1.29299694 4.87219421 2.65941363 7 5 C6.67 5.66 6.34 6.32 6 7 C5.34 6.67 4.68 6.34 4 6 C4 5.34 4 4.68 4 4 C2.68 3.34 1.36 2.68 0 2 C0 1.34 0 0.68 0 0 Z " fill="#EB2E3E" transform="translate(376,78)"/>
</svg>
